<?xml version="1.0" encoding="utf-8"?>
<!-- Generator: Adobe Illustrator 17.0.0, SVG Export Plug-In . SVG Version: 6.00 Build 0)  -->
<!DOCTYPE svg PUBLIC "-//W3C//DTD SVG 1.1//EN" "http://www.w3.org/Graphics/SVG/1.1/DTD/svg11.dtd">
<svg version="1.1" id="图层_1" xmlns="http://www.w3.org/2000/svg" xmlns:xlink="http://www.w3.org/1999/xlink" x="0px" y="0px"
	 width="1920px" height="1080px" viewBox="0 0 1920 1080" enable-background="new 0 0 1920 1080" xml:space="preserve">
<g>
	<path d="M2547.329,634.991h12.415c9.802,0,16.336,3.268,16.336,12.771c0,9.207-6.534,13.484-16.039,13.484h-7.188v17.286h-5.524
		V634.991z M2559.328,656.792c7.663,0,11.286-2.792,11.286-9.029c0-6.297-3.86-8.316-11.523-8.316h-6.237v17.346H2559.328z"/>
	<path d="M2583.085,666.712v-20.435h5.406v19.781c0,6,1.782,8.554,6.059,8.554c3.327,0,5.644-1.604,8.732-5.465v-22.87h5.405v32.256
		h-4.515l-0.415-5.049h-0.179c-3.029,3.504-6.237,5.821-10.692,5.821C2586.115,679.306,2583.085,674.909,2583.085,666.712z"/>
	<path d="M2623.655,675.207h-0.179l-0.475,3.326h-4.337v-47.284h5.406v12.949l-0.179,5.821c2.911-2.554,6.534-4.573,10.099-4.573
		c8.376,0,12.891,6.534,12.891,16.395c0,11.108-6.594,17.465-14.02,17.465C2629.892,679.306,2626.505,677.82,2623.655,675.207z
		 M2641.238,661.96c0-7.128-2.376-11.94-8.495-11.94c-2.732,0-5.583,1.545-8.672,4.456v16.93c2.851,2.494,5.762,3.386,7.9,3.386
		C2637.317,674.791,2641.238,669.979,2641.238,661.96z"/>
	<path d="M2654.481,672.118v-40.869h5.406v41.226c0,1.663,0.712,2.316,1.544,2.316c0.297,0,0.535,0,1.129-0.119l0.772,4.158
		c-0.772,0.297-1.723,0.476-3.148,0.476C2656.144,679.306,2654.481,676.691,2654.481,672.118z"/>
	<path d="M2669.508,636.12c0-2.198,1.604-3.505,3.742-3.505s3.742,1.307,3.742,3.505c0,2.02-1.604,3.505-3.742,3.505
		S2669.508,638.14,2669.508,636.12z M2670.518,646.277h5.406v32.256h-5.406V646.277z"/>
	<path d="M2682.338,674.851l2.673-3.564c2.792,2.257,5.702,3.802,9.563,3.802c4.277,0,6.356-2.258,6.356-5.049
		c0-3.268-3.802-4.753-7.366-6.119c-4.515-1.663-9.623-3.861-9.623-9.326c0-5.108,4.099-9.147,11.108-9.147
		c3.979,0,7.484,1.663,10.039,3.623l-2.614,3.505c-2.257-1.663-4.515-2.852-7.425-2.852c-4.039,0-5.881,2.139-5.881,4.634
		c0,3.089,3.505,4.218,7.128,5.584c4.693,1.782,9.861,3.683,9.861,9.801c0,5.228-4.158,9.564-11.762,9.564
		C2689.823,679.306,2685.427,677.404,2682.338,674.851z"/>
	<path d="M2712.867,631.249h5.406v12.949l-0.179,6.653c2.97-2.97,6.297-5.405,10.692-5.405c6.772,0,9.861,4.396,9.861,12.652v20.435
		h-5.406v-19.722c0-6.059-1.841-8.613-6.118-8.613c-3.326,0-5.584,1.663-8.851,4.931v23.404h-5.406V631.249z"/>
	<path d="M2747.021,636.12c0-2.198,1.604-3.505,3.742-3.505s3.742,1.307,3.742,3.505c0,2.02-1.604,3.505-3.742,3.505
		S2747.021,638.14,2747.021,636.12z M2748.031,646.277h5.406v32.256h-5.406V646.277z"/>
	<path d="M2763.474,646.277h4.455l0.476,4.634h0.178c3.089-3.029,6.416-5.465,10.812-5.465c6.772,0,9.861,4.396,9.861,12.652v20.435
		h-5.406v-19.722c0-6.059-1.841-8.613-6.118-8.613c-3.326,0-5.584,1.663-8.851,4.931v23.404h-5.406V646.277z"/>
	<path d="M2796.379,684.711c0-2.732,1.782-5.346,4.812-7.307v-0.237c-1.723-1.01-2.97-2.732-2.97-5.287
		c0-2.673,1.96-4.812,3.624-5.999v-0.238c-2.139-1.723-4.218-4.812-4.218-8.673c0-7.068,5.584-11.523,12.118-11.523
		c1.782,0,3.386,0.416,4.515,0.831h11.227v4.158h-6.594c1.545,1.485,2.614,3.861,2.614,6.653c0,6.891-5.228,11.228-11.762,11.228
		c-1.604,0-3.386-0.416-4.812-1.129c-1.188,1.01-2.079,2.079-2.079,3.861c0,2.079,1.307,3.505,5.643,3.505h6.297
		c7.484,0,11.228,2.376,11.228,7.662c0,6-6.297,11.168-16.276,11.168C2801.845,693.384,2796.379,690.295,2796.379,684.711z
		 M2820.794,683.048c0-2.97-2.317-3.98-6.594-3.98h-5.584c-1.188,0-2.732-0.178-4.158-0.534c-2.316,1.663-3.326,3.564-3.326,5.465
		c0,3.445,3.505,5.703,9.385,5.703C2816.696,689.701,2820.794,686.434,2820.794,683.048z M2816.576,656.97
		c0-4.692-3.029-7.544-6.831-7.544s-6.891,2.792-6.891,7.544c0,4.693,3.148,7.663,6.891,7.663
		C2813.428,664.633,2816.576,661.663,2816.576,656.97z"/>
	<path d="M2841.818,670.157c0-7.009,6.118-10.514,19.841-12.059c0-4.158-1.366-8.138-6.653-8.138c-3.742,0-7.129,1.723-9.683,3.445
		l-2.139-3.742c2.97-1.901,7.544-4.218,12.712-4.218c7.842,0,11.168,5.286,11.168,13.246v19.841h-4.455l-0.476-3.861h-0.178
		c-3.089,2.555-6.713,4.634-10.692,4.634C2845.857,679.306,2841.818,675.978,2841.818,670.157z M2861.658,670.692v-9.029
		c-10.871,1.307-14.554,3.979-14.554,8.138c0,3.684,2.495,5.168,5.702,5.168C2855.955,674.969,2858.51,673.484,2861.658,670.692z"/>
	<path d="M2876.506,668.554v-17.88h-4.812v-4.1l5.05-0.297l0.653-9.029h4.515v9.029h8.732v4.396h-8.732v17.999
		c0,3.979,1.247,6.236,4.989,6.236c1.129,0,2.614-0.415,3.684-0.831l1.069,4.039c-1.842,0.594-3.98,1.188-5.94,1.188
		C2878.823,679.306,2876.506,675.028,2876.506,668.554z"/>
	<path d="M2910.422,668.554v-17.88h-4.812v-4.1l5.05-0.297l0.653-9.029h4.515v9.029h8.732v4.396h-8.732v17.999
		c0,3.979,1.247,6.236,4.989,6.236c1.129,0,2.614-0.415,3.684-0.831l1.069,4.039c-1.842,0.594-3.98,1.188-5.94,1.188
		C2912.74,679.306,2910.422,675.028,2910.422,668.554z"/>
	<path d="M2930.973,631.249h5.406v12.949l-0.179,6.653c2.97-2.97,6.297-5.405,10.692-5.405c6.772,0,9.861,4.396,9.861,12.652v20.435
		h-5.406v-19.722c0-6.059-1.841-8.613-6.118-8.613c-3.326,0-5.584,1.663-8.851,4.931v23.404h-5.406V631.249z"/>
	<path d="M2963.7,662.435c0-10.455,7.069-16.989,14.554-16.989c8.197,0,12.831,5.94,12.831,15.147c0,1.188-0.119,2.316-0.237,3.089
		h-21.741c0.356,6.891,4.573,11.286,10.692,11.286c3.148,0,5.702-0.95,8.078-2.554l1.961,3.563
		c-2.852,1.842-6.297,3.327-10.692,3.327C2970.591,679.306,2963.7,673.068,2963.7,662.435z M2986.333,659.821
		c0-6.534-2.971-10.039-8.02-10.039c-4.574,0-8.613,3.684-9.267,10.039H2986.333z"/>
	<path d="M3007.892,672.83l3.267-3.742c3.148,3.268,7.545,5.406,12.06,5.406c5.702,0,9.147-2.852,9.147-7.129
		c0-4.455-3.148-5.881-7.247-7.722l-6.297-2.732c-4.039-1.723-8.851-4.813-8.851-11.168c0-6.713,5.821-11.584,13.722-11.584
		c5.168,0,9.742,2.198,12.831,5.406l-2.911,3.505c-2.673-2.495-5.88-4.1-9.92-4.1c-4.931,0-8.138,2.495-8.138,6.416
		c0,4.218,3.802,5.821,7.188,7.247l6.237,2.673c5.049,2.198,8.97,5.168,8.97,11.644c0,6.891-5.703,12.355-14.791,12.355
		C3016.981,679.306,3011.694,676.81,3007.892,672.83z"/>
	<path d="M3045.134,646.277h4.455l0.476,3.684h0.178c2.911-2.376,6.534-4.515,10.277-4.515c8.316,0,12.831,6.534,12.831,16.454
		c0,11.049-6.594,17.405-14.02,17.405c-2.91,0-6-1.366-8.91-3.742l0.119,5.643v10.931h-5.406V646.277z M3067.707,661.96
		c0-7.128-2.376-11.94-8.495-11.94c-2.732,0-5.524,1.545-8.672,4.456v16.93c2.91,2.494,5.762,3.386,7.9,3.386
		C3063.786,674.791,3067.707,669.979,3067.707,661.96z"/>
	<path d="M3078.633,662.435c0-10.455,7.069-16.989,14.554-16.989c8.197,0,12.831,5.94,12.831,15.147
		c0,1.188-0.119,2.316-0.237,3.089h-21.741c0.356,6.891,4.573,11.286,10.692,11.286c3.148,0,5.702-0.95,8.078-2.554l1.961,3.563
		c-2.852,1.842-6.297,3.327-10.692,3.327C3085.524,679.306,3078.633,673.068,3078.633,662.435z M3101.266,659.821
		c0-6.534-2.971-10.039-8.02-10.039c-4.574,0-8.613,3.684-9.267,10.039H3101.266z"/>
	<path d="M3110.648,662.435c0-10.455,7.069-16.989,14.554-16.989c8.197,0,12.831,5.94,12.831,15.147
		c0,1.188-0.119,2.316-0.237,3.089h-21.741c0.356,6.891,4.573,11.286,10.692,11.286c3.148,0,5.702-0.95,8.078-2.554l1.961,3.563
		c-2.852,1.842-6.297,3.327-10.692,3.327C3117.538,679.306,3110.648,673.068,3110.648,662.435z M3133.281,659.821
		c0-6.534-2.971-10.039-8.02-10.039c-4.574,0-8.613,3.684-9.267,10.039H3133.281z"/>
	<path d="M3142.781,662.435c0-10.455,6.594-16.989,13.96-16.989c3.801,0,6.236,1.426,9.088,3.802l-0.297-5.584v-12.415h5.405v47.284
		h-4.396l-0.534-3.802h-0.119c-2.555,2.495-5.94,4.574-9.802,4.574C3148.009,679.306,3142.781,673.186,3142.781,662.435z
		 M3165.532,670.336v-16.93c-2.732-2.436-5.168-3.387-7.841-3.387c-5.228,0-9.326,4.99-9.326,12.356
		c0,7.781,3.207,12.415,8.91,12.415C3160.245,674.791,3162.86,673.306,3165.532,670.336z"/>
	<path d="M3191.012,662.435c0-10.752,7.069-16.989,14.97-16.989s14.97,6.237,14.97,16.989c0,10.692-7.069,16.87-14.97,16.87
		S3191.012,673.128,3191.012,662.435z M3215.367,662.435c0-7.426-3.802-12.475-9.386-12.475s-9.326,5.049-9.326,12.475
		c0,7.425,3.742,12.355,9.326,12.355S3215.367,669.86,3215.367,662.435z"/>
	<path d="M3243.045,635.644c-1.188-0.534-2.495-0.832-3.623-0.832c-3.089,0-4.574,2.198-4.574,6.356v5.108h6.831v4.396h-6.831
		v27.859h-5.405v-27.859h-4.396v-4.1l4.396-0.297v-5.168c0-6.534,2.97-10.633,9.385-10.633c1.961,0,3.861,0.416,5.406,1.069
		L3243.045,635.644z"/>
	<path d="M3283.793,678.533l-10.574-18.475h-7.841v18.475h-5.524v-43.542h13.662c8.852,0,15.207,3.148,15.207,12.237
		c0,6.771-3.92,10.811-9.86,12.236l11.168,19.068H3283.793z M3265.378,655.603h7.307c6.831,0,10.573-2.732,10.573-8.375
		c0-5.763-3.742-7.782-10.573-7.782h-7.307V655.603z"/>
	<path d="M3293.116,662.435c0-10.455,7.069-16.989,14.554-16.989c8.197,0,12.831,5.94,12.831,15.147
		c0,1.188-0.119,2.316-0.237,3.089h-21.741c0.356,6.891,4.573,11.286,10.692,11.286c3.148,0,5.702-0.95,8.078-2.554l1.961,3.563
		c-2.852,1.842-6.297,3.327-10.692,3.327C3300.007,679.306,3293.116,673.068,3293.116,662.435z M3315.749,659.821
		c0-6.534-2.971-10.039-8.02-10.039c-4.574,0-8.613,3.684-9.267,10.039H3315.749z"/>
	<path d="M3323.943,674.851l2.673-3.564c2.792,2.257,5.702,3.802,9.563,3.802c4.277,0,6.356-2.258,6.356-5.049
		c0-3.268-3.802-4.753-7.366-6.119c-4.515-1.663-9.623-3.861-9.623-9.326c0-5.108,4.099-9.147,11.108-9.147
		c3.979,0,7.484,1.663,10.039,3.623l-2.614,3.505c-2.257-1.663-4.515-2.852-7.425-2.852c-4.039,0-5.881,2.139-5.881,4.634
		c0,3.089,3.505,4.218,7.128,5.584c4.693,1.782,9.861,3.683,9.861,9.801c0,5.228-4.158,9.564-11.762,9.564
		C3331.427,679.306,3327.031,677.404,3323.943,674.851z"/>
	<path d="M3352.037,662.435c0-10.455,7.069-16.989,14.554-16.989c8.197,0,12.831,5.94,12.831,15.147
		c0,1.188-0.119,2.316-0.237,3.089h-21.741c0.356,6.891,4.573,11.286,10.692,11.286c3.148,0,5.702-0.95,8.078-2.554l1.961,3.563
		c-2.852,1.842-6.297,3.327-10.692,3.327C3358.928,679.306,3352.037,673.068,3352.037,662.435z M3374.67,659.821
		c0-6.534-2.971-10.039-8.02-10.039c-4.574,0-8.613,3.684-9.267,10.039H3374.67z"/>
	<path d="M3383.518,670.157c0-7.009,6.118-10.514,19.841-12.059c0-4.158-1.366-8.138-6.653-8.138c-3.742,0-7.128,1.723-9.683,3.445
		l-2.139-3.742c2.97-1.901,7.544-4.218,12.712-4.218c7.842,0,11.168,5.286,11.168,13.246v19.841h-4.455l-0.476-3.861h-0.178
		c-3.089,2.555-6.713,4.634-10.692,4.634C3387.557,679.306,3383.518,675.978,3383.518,670.157z M3403.359,670.692v-9.029
		c-10.871,1.307-14.554,3.979-14.554,8.138c0,3.684,2.495,5.168,5.702,5.168C3397.656,674.969,3400.21,673.484,3403.359,670.692z"/>
	<path d="M3418.146,646.277h4.455l0.476,5.881h0.178c2.258-4.099,5.524-6.712,9.148-6.712c1.426,0,2.436,0.178,3.445,0.713
		l-1.01,4.752c-1.069-0.416-1.842-0.535-3.148-0.535c-2.673,0-6,1.901-8.138,7.426v20.731h-5.406V646.277z"/>
	<path d="M3437.212,662.435c0-10.752,7.307-16.989,15.563-16.989c4.218,0,7.129,1.782,9.445,3.802l-2.792,3.623
		c-1.901-1.723-3.861-2.91-6.475-2.91c-5.821,0-10.099,5.049-10.099,12.475c0,7.425,4.039,12.355,9.979,12.355
		c2.97,0,5.584-1.366,7.604-3.208l2.316,3.624c-2.851,2.613-6.534,4.099-10.396,4.099
		C3443.806,679.306,3437.212,673.128,3437.212,662.435z"/>
	<path d="M3468.99,631.249h5.406v12.949l-0.179,6.653c2.97-2.97,6.297-5.405,10.692-5.405c6.772,0,9.861,4.396,9.861,12.652v20.435
		h-5.406v-19.722c0-6.059-1.841-8.613-6.118-8.613c-3.326,0-5.584,1.663-8.851,4.931v23.404h-5.406V631.249z"/>
</g>
<g>
	<path fill="#9FA0A0" d="M-712.774,583.506c-5.609,4.503-12.728,7.203-20.481,7.203c-18.086,0-32.748-14.661-32.748-32.747v-32.94
		h49.661v-18.713h-49.661v-18.95h-18.713v18.95h-12.452v18.713h12.452v32.94c0,28.421,23.04,51.46,51.461,51.46
		c11.766,0,22.603-3.957,31.271-10.601L-712.774,583.506z"/>
	<path fill="#9FA0A0" d="M-943.774,506.309c-12.487,0-23.939,4.431-32.87,11.807V488.63v-18.713h-18.713h-15.331v18.713h15.331
		v66.64c-0.046,0.891-0.07,1.788-0.07,2.691s0.024,1.8,0.07,2.691v30.249h-15.331v18.713h15.331h18.713v-11.807
		c8.931,7.376,20.383,11.807,32.87,11.807c28.527,0,51.652-23.126,51.652-51.652S-915.247,506.309-943.774,506.309z
		 M-943.774,590.831c-18.153,0-32.868-14.715-32.87-32.867v-0.005c0.001-18.152,14.717-32.867,32.87-32.867
		c18.153,0,32.87,14.716,32.87,32.87S-925.62,590.831-943.774,590.831z"/>
	<path fill="#9FA0A0" d="M-811.978,469.917c-7.97,0-14.431,6.461-14.431,14.431c0,3.331,1.14,6.39,3.036,8.833
		c-1.467,6.363-5.343,17.316-15.28,24.03c-5.594,3.779-9.881,7.508-13.132,11.851c-3.251-4.343-7.537-8.072-13.131-11.851
		c-9.731-6.574-13.646-17.194-15.183-23.621c2.09-2.504,3.351-5.724,3.351-9.241c0-7.97-6.461-14.431-14.431-14.431
		c-7.97,0-14.431,6.461-14.431,14.431c0,5.376,2.945,10.056,7.305,12.539c2.091,9.386,7.777,25.319,23.045,35.634
		c10.578,7.146,14.237,11.114,14.237,40.536V584.1c-3.172,2.647-5.193,6.628-5.193,11.082c0,7.97,6.461,14.431,14.431,14.431
		s14.431-6.461,14.431-14.431c0-4.455-2.021-8.436-5.194-11.083v-11.041c0-29.42,3.659-33.389,14.238-40.536
		c15.132-10.223,20.849-25.958,22.985-35.375c4.619-2.406,7.777-7.23,7.777-12.798
		C-797.546,476.378-804.007,469.917-811.978,469.917z M-891.179,490.762c-3.542,0-6.414-2.872-6.414-6.414
		c0-3.542,2.872-6.414,6.414-6.414c3.542,0,6.414,2.872,6.414,6.414C-884.765,487.891-887.637,490.762-891.179,490.762z
		 M-851.785,601.596c-3.542,0-6.414-2.872-6.414-6.414c0-3.542,2.872-6.414,6.414-6.414c3.542,0,6.414,2.872,6.414,6.414
		C-845.371,598.724-848.243,601.596-851.785,601.596z M-811.978,490.762c-3.542,0-6.414-2.872-6.414-6.414
		c0-3.542,2.872-6.414,6.414-6.414c3.542,0,6.414,2.872,6.414,6.414C-805.564,487.891-808.435,490.762-811.978,490.762z"/>
	<path fill="#DCDDDD" d="M-1429.669,599.242c-0.486,1.215-1.427,2.222-2.845,3.025c-1.255,0.484-3.638,1.298-7.142,2.424
		c-2.661,0.647-4.762,1.291-6.313,1.935c-10.799,4.352-23.839,6.533-39.134,6.533c-9.97,0-19.422-1.854-28.407-5.566
		c-8.975-3.712-16.865-8.911-23.669-15.607c-6.8-6.693-12.088-14.362-15.875-22.992c-3.791-8.619-5.69-17.691-5.69-27.224
		c0-9.662,1.829-18.949,5.478-27.816c3.642-8.87,8.864-16.735,15.664-23.597c6.81-6.852,14.953-12.257,24.404-16.209
		c9.469-3.94,19.813-5.923,31.038-5.923c4.069,0,8.486,0.284,13.257,0.848c4.768,0.557,10.16,1.405,16.206,2.542
		c1.813,0.321,4.198,1.121,7.147,2.413c2.236,0.973,3.716,1.454,4.415,1.454c0.832,0,1.888-0.08,3.156-0.247
		c1.259-0.146,2.314-0.234,3.152-0.234c1.542,0,2.553,0.203,3.054,0.601c0.5,0.408,0.733,0.852,0.733,1.333v5.558
		c0,1.791,0.149,4.195,0.421,7.27c0.154,2.9,0.213,4.923,0.213,6.046c0,1.288-0.347,2.668-1.05,4.104
		c-0.7,1.451-1.893,2.184-3.575,2.184c-1.392,0-3.85-2.253-7.368-6.776c-2.101-2.74-4.029-5.044-5.784-6.891
		c-1.75-1.858-3.683-3.263-5.78-4.237c-4.077-2.091-8.101-3.625-12.107-4.595c-3.994-0.973-8.232-1.454-12.733-1.454
		c-8.41,0-16.052,1.415-22.916,4.233c-6.888,2.83-12.77,6.907-17.683,12.223c-4.901,5.314-8.668,11.617-11.249,18.876
		c-2.598,7.256-3.9,15.158-3.9,23.709c0,8.552,1.332,16.853,3.994,24.918c2.665,8.074,6.393,15.204,11.155,21.42
		c4.777,6.212,10.283,11.089,16.523,14.63c6.24,3.554,12.856,5.322,19.874,5.322c3.37,0,7.434-0.723,12.202-2.18
		c4.772-1.437,10.521-3.38,17.252-5.808c0.981-0.312,1.606-1.408,1.903-3.255c0.278-1.864,0.415-4.153,0.415-6.902
		c0-9.841-0.208-17.012-0.634-21.533c-0.282-5.161-1.01-8.992-2.205-11.495c-1.185-2.498-3.677-5.032-7.46-7.622v-1.938
		c5.036,0.334,9.204,0.608,12.509,0.848c3.291,0.243,6.274,0.365,8.946,0.365c1.674,0,4.341-0.16,7.994-0.483
		c4.063-0.326,7.844-0.563,11.359-0.73l-0.629,1.938c-2.676,1.293-4.421,3.424-5.263,6.41c-0.844,2.995-1.339,6.815-1.472,11.499
		l-0.203,1.94c-0.293,4.999-0.466,9.59-0.531,13.782c-0.08,4.203-0.114,10.088-0.114,17.666
		C-1428.931,596.941-1429.164,598.038-1429.669,599.242"/>
	<path fill="#DCDDDD" d="M-1401.044,610.731c-3.023,0.167-6.988,0.486-11.9,0.97v-2.18c2.959-1.607,5.269-3.667,6.949-6.171
		c1.68-2.493,2.592-5.514,2.731-9.069c0.272-11.29,0.421-28.144,0.421-50.571c0-7.576-0.149-15.843-0.421-24.798
		c-0.278-8.949-0.62-18.104-1.051-27.462c-0.278-4.348-1.056-8.018-2.319-11.002c-1.249-2.982-3.708-5.694-7.35-8.109v-2.178
		c4.891,0.488,8.975,0.852,12.197,1.096c3.236,0.239,6.236,0.355,9.05,0.355c2.234,0,5.614-0.161,10.101-0.48
		c4.905-0.32,8.549-0.561,10.932-0.727v1.934c-3.088,1.613-5.298,4.16-6.62,7.623c-1.333,3.471-2.216,7.461-2.627,11.976
		c-0.425,6.449-0.625,16.859-0.625,31.217v20.073c0,11.138,0.417,27.828,1.245,50.081c0.431,7.59,3.786,12.998,10.109,16.215v2.18
		c-1.275-0.163-2.121-0.237-2.538-0.237c-5.461-0.323-9.5-0.566-12.087-0.733c-2.594-0.156-5.149-0.237-7.687-0.237
		C-1395.201,610.494-1398.03,610.575-1401.044,610.731"/>
	<path fill="#DCDDDD" d="M-1234.415,599.242c-0.501,1.215-1.443,2.222-2.849,3.025c-1.259,0.484-3.642,1.298-7.152,2.424
		c-2.665,0.647-4.768,1.291-6.313,1.935c-10.799,4.352-23.834,6.533-39.127,6.533c-9.958,0-19.429-1.854-28.399-5.566
		c-8.985-3.712-16.876-8.911-23.68-15.607c-6.8-6.693-12.087-14.362-15.874-22.992c-3.797-8.619-5.695-17.691-5.695-27.224
		c0-9.662,1.829-18.949,5.482-27.816c3.642-8.87,8.866-16.735,15.666-23.597c6.808-6.852,14.942-12.257,24.408-16.209
		c9.469-3.94,19.813-5.923,31.038-5.923c4.059,0,8.48,0.284,13.257,0.848c4.754,0.557,10.16,1.405,16.201,2.542
		c1.815,0.321,4.203,1.121,7.142,2.413c2.25,0.973,3.732,1.454,4.425,1.454c0.842,0,1.888-0.08,3.147-0.247
		c1.269-0.146,2.32-0.234,3.168-0.234c1.541,0,2.552,0.203,3.053,0.601c0.481,0.408,0.729,0.852,0.729,1.333v5.558
		c0,1.791,0.139,4.195,0.421,7.27c0.139,2.9,0.214,4.923,0.214,6.046c0,1.288-0.351,2.668-1.056,4.104
		c-0.689,1.451-1.903,2.184-3.569,2.184c-1.416,0-3.865-2.253-7.374-6.776c-2.095-2.74-4.034-5.044-5.774-6.891
		c-1.769-1.858-3.691-3.263-5.794-4.237c-4.067-2.091-8.092-3.625-12.097-4.595c-3.994-0.973-8.247-1.454-12.727-1.454
		c-8.425,0-16.067,1.415-22.932,4.233c-6.874,2.83-12.766,6.907-17.683,12.223c-4.911,5.314-8.662,11.617-11.249,18.876
		c-2.592,7.256-3.9,15.158-3.9,23.709c0,8.552,1.343,16.853,4.004,24.918c2.665,8.074,6.387,15.204,11.145,21.42
		c4.768,6.212,10.279,11.089,16.514,14.63c6.255,3.554,12.876,5.322,19.899,5.322c3.349,0,7.433-0.723,12.201-2.18
		c4.763-1.437,10.516-3.38,17.242-5.808c0.981-0.312,1.615-1.408,1.889-3.255c0.292-1.864,0.441-4.153,0.441-6.902
		c0-9.841-0.229-17.012-0.644-21.533c-0.278-5.161-1.006-8.992-2.206-11.495c-1.199-2.498-3.683-5.032-7.474-7.622v-1.938
		c5.055,0.334,9.229,0.608,12.525,0.848c3.29,0.243,6.274,0.365,8.935,0.365c1.686,0,4.357-0.16,7.994-0.483
		c4.069-0.326,7.855-0.563,11.38-0.73l-0.644,1.938c-2.672,1.293-4.421,3.424-5.259,6.41c-0.848,2.995-1.333,6.815-1.472,11.499
		l-0.208,1.94c-0.284,4.999-0.456,9.59-0.535,13.782c-0.066,4.203-0.095,10.088-0.095,17.666
		C-1233.676,596.941-1233.928,598.038-1234.415,599.242"/>
	<path fill="#DCDDDD" d="M-1091.47,592.342c1.691,4.521,3.732,8.119,6.107,10.771c2.397,2.661,5.402,4.801,9.054,6.408v2.661
		c-4.634-0.803-8.638-1.363-11.993-1.688c-3.376-0.328-6.597-0.487-9.674-0.487c-3.088,0-6.493,0.159-10.215,0.487
		c-3.707,0.326-8.024,0.811-12.939,1.451v-2.424c0-0.803,0.772-2.17,2.314-4.108c2.116-2.74,3.156-4.922,3.156-6.526
		c0-1.143-0.145-2.38-0.417-3.764c-0.282-1.363-0.56-2.203-0.846-2.542l-13.04-35.555c-5.759-0.654-12.133-0.967-19.14-0.967
		c-7.438,0-14.041,0.313-19.789,0.967l-14.922,38.464c-1.269,3.078-1.903,5.645-1.903,7.746c0,2.587,0.981,4.848,2.943,6.771v1.938
		c-3.781-0.64-6.904-1.047-9.367-1.214c-2.443-0.149-4.936-0.237-7.459-0.237c-2.804,0-5.614,0.118-8.414,0.355
		c-2.811,0.247-6.389,0.689-10.73,1.333l2.091-2.661c4.208-1.607,7.82-3.822,10.849-6.65c3.012-2.827,5.569-6.653,7.676-11.486
		l40.178-97.761c0.278-0.634,0.421-1.45,0.421-2.417c0-3.381-1.189-6.779-3.578-10.158c-2.379-3.389-5.471-6.373-9.243-8.946
		l-0.639-1.944c8.411,0.651,16.271,0.971,23.566,0.971h7.573l7.993,20.318L-1091.47,592.342z M-1133.749,547.832v-0.481
		l-14.719-39.45l-15.993,39.45v0.481c3.354,0.153,8.414,0.237,15.139,0.237C-1142.303,548.069-1137.118,547.985-1133.749,547.832"/>
	<path fill="#9FA0A0" d="M-650.364,506.309c-28.527,0-51.653,23.126-51.653,51.653c0,28.527,23.125,51.653,51.653,51.653
		c13.539,0,25.855-5.216,35.065-13.739l-10.965-15.577c-6,6.476-14.574,10.533-24.1,10.533c-18.154,0-32.87-14.716-32.87-32.87
		s14.717-32.87,32.87-32.87c14.902,0,27.48,9.92,31.51,23.513h-50.859v18.713h67.563h1.694h0.883
		c0.556-3.036,0.861-6.16,0.861-9.357C-598.711,529.434-621.837,506.309-650.364,506.309z"/>
	<g>
		<g>
			
				<line fill="none" stroke="#E60012" stroke-width="0.5669" stroke-miterlimit="10" x1="-731.086" y1="557.429" x2="-730.268" y2="558.587"/>
			
				<line fill="none" stroke="#E60012" stroke-width="0.5669" stroke-miterlimit="10" stroke-dasharray="2.7708,2.7708" x1="-728.67" y1="560.85" x2="-678.333" y2="632.151"/>
			
				<line fill="none" stroke="#E60012" stroke-width="0.5669" stroke-miterlimit="10" x1="-677.534" y1="633.282" x2="-676.716" y2="634.44"/>
		</g>
	</g>
	<g>
		<g>
			
				<line fill="none" stroke="#E60012" stroke-width="0.5669" stroke-miterlimit="10" x1="-642.439" y1="557.429" x2="-641.622" y2="558.587"/>
			
				<line fill="none" stroke="#E60012" stroke-width="0.5669" stroke-miterlimit="10" stroke-dasharray="2.7708,2.7708" x1="-640.024" y1="560.85" x2="-589.686" y2="632.151"/>
			
				<line fill="none" stroke="#E60012" stroke-width="0.5669" stroke-miterlimit="10" x1="-588.887" y1="633.282" x2="-588.069" y2="634.44"/>
		</g>
	</g>
	
		<line fill="none" stroke="#E60012" stroke-width="0.5669" stroke-miterlimit="10" stroke-dasharray="2.8346" x1="-1016.099" y1="506.309" x2="-574.904" y2="506.309"/>
	
		<line fill="none" stroke="#E60012" stroke-width="0.5669" stroke-miterlimit="10" stroke-dasharray="2.8346" x1="-1016.099" y1="525.022" x2="-574.904" y2="525.022"/>
	
		<line fill="none" stroke="#E60012" stroke-width="0.5669" stroke-miterlimit="10" stroke-dasharray="2.8346" x1="-1016.099" y1="469.917" x2="-574.904" y2="469.917"/>
	
		<line fill="none" stroke="#E60012" stroke-width="0.5669" stroke-miterlimit="10" stroke-dasharray="2.8346" x1="-1016.099" y1="609.614" x2="-574.904" y2="609.614"/>
	<path fill="#DCDDDD" d="M-1564.063,611.775c-9.067-20.179-11.766-47.704-11.766-73.079c0-25.465,1.212-49.348,11.849-71.855h-9.733
		c-9.441,20.194-19.705,45.357-19.575,71.855c0.087,17.712,8.326,48.114,19.427,73.079H-1564.063z"/>
	<path fill="#DCDDDD" d="M-1059.897,611.775c9.067-20.179,11.766-47.704,11.766-73.079c0-25.465-1.212-49.348-11.849-71.855h9.733
		c9.441,20.194,19.705,45.357,19.575,71.855c-0.087,17.712-8.326,48.114-19.427,73.079H-1059.897z"/>
</g>
<g>
	<path d="M1343.226,583.506c-5.609,4.503-12.728,7.203-20.481,7.203c-18.086,0-32.748-14.661-32.748-32.747v-32.94h49.661v-18.713
		h-49.661v-18.95h-18.713v18.95h-12.452v18.713h12.452v32.94c0,28.421,23.04,51.46,51.461,51.46
		c11.766,0,22.603-3.957,31.271-10.601L1343.226,583.506z"/>
	<path d="M1112.226,506.309c-12.487,0-23.939,4.431-32.87,11.807V488.63v-18.713h-18.713h-15.331v18.713h15.331v66.64
		c-0.046,0.891-0.07,1.788-0.07,2.691s0.024,1.8,0.07,2.691v30.249h-15.331v18.713h15.331h18.713v-11.807
		c8.931,7.376,20.383,11.807,32.87,11.807c28.527,0,51.652-23.126,51.652-51.652S1140.753,506.309,1112.226,506.309z
		 M1112.226,590.831c-18.153,0-32.868-14.715-32.87-32.867v-0.005c0.001-18.152,14.717-32.867,32.87-32.867
		c18.153,0,32.87,14.716,32.87,32.87S1130.38,590.831,1112.226,590.831z"/>
	<path fill="#00913A" d="M1244.023,469.917c-7.97,0-14.431,6.461-14.431,14.431c0,3.331,1.14,6.39,3.036,8.833
		c-1.467,6.363-5.343,17.316-15.28,24.03c-5.594,3.779-9.881,7.508-13.132,11.851c-3.251-4.343-7.537-8.072-13.131-11.851
		c-9.731-6.574-13.646-17.194-15.183-23.621c2.09-2.504,3.351-5.724,3.351-9.241c0-7.97-6.461-14.431-14.431-14.431
		c-7.97,0-14.431,6.461-14.431,14.431c0,5.376,2.945,10.056,7.305,12.539c2.091,9.386,7.777,25.319,23.045,35.634
		c10.578,7.146,14.237,11.114,14.237,40.536V584.1c-3.172,2.647-5.193,6.628-5.193,11.082c0,7.97,6.461,14.431,14.431,14.431
		s14.431-6.461,14.431-14.431c0-4.455-2.021-8.436-5.194-11.083v-11.041c0-29.42,3.659-33.389,14.238-40.536
		c15.132-10.223,20.849-25.958,22.985-35.375c4.619-2.406,7.777-7.23,7.777-12.798
		C1258.454,476.378,1251.993,469.917,1244.023,469.917z M1164.821,490.762c-3.542,0-6.414-2.872-6.414-6.414
		c0-3.542,2.872-6.414,6.414-6.414c3.542,0,6.414,2.872,6.414,6.414C1171.235,487.891,1168.363,490.762,1164.821,490.762z
		 M1204.215,601.596c-3.542,0-6.414-2.872-6.414-6.414c0-3.542,2.872-6.414,6.414-6.414c3.542,0,6.414,2.872,6.414,6.414
		C1210.629,598.724,1207.758,601.596,1204.215,601.596z M1244.023,490.762c-3.542,0-6.414-2.872-6.414-6.414
		c0-3.542,2.872-6.414,6.414-6.414c3.542,0,6.414,2.872,6.414,6.414C1250.436,487.891,1247.565,490.762,1244.023,490.762z"/>
	<g>
		<path fill="#221815" d="M626.331,599.242c-0.486,1.215-1.427,2.222-2.845,3.025c-1.255,0.484-3.638,1.298-7.142,2.424
			c-2.661,0.647-4.762,1.291-6.313,1.935c-10.799,4.352-23.838,6.533-39.134,6.533c-9.97,0-19.422-1.854-28.407-5.566
			c-8.976-3.712-16.865-8.911-23.669-15.607c-6.8-6.693-12.088-14.362-15.875-22.992c-3.791-8.619-5.69-17.691-5.69-27.224
			c0-9.662,1.829-18.949,5.478-27.816c3.642-8.87,8.864-16.735,15.664-23.597c6.81-6.852,14.953-12.257,24.404-16.209
			c9.469-3.94,19.813-5.923,31.038-5.923c4.069,0,8.486,0.284,13.257,0.848c4.768,0.557,10.16,1.405,16.206,2.542
			c1.813,0.321,4.198,1.121,7.147,2.413c2.236,0.973,3.716,1.454,4.415,1.454c0.832,0,1.888-0.08,3.156-0.247
			c1.259-0.146,2.314-0.234,3.152-0.234c1.542,0,2.553,0.203,3.054,0.601c0.5,0.408,0.732,0.852,0.732,1.333v5.558
			c0,1.791,0.149,4.195,0.421,7.27c0.154,2.9,0.213,4.923,0.213,6.046c0,1.288-0.347,2.668-1.05,4.104
			c-0.7,1.451-1.893,2.184-3.575,2.184c-1.392,0-3.85-2.253-7.368-6.776c-2.101-2.74-4.029-5.044-5.784-6.891
			c-1.75-1.858-3.683-3.263-5.78-4.237c-4.077-2.091-8.101-3.625-12.107-4.595c-3.994-0.973-8.232-1.454-12.733-1.454
			c-8.41,0-16.052,1.415-22.916,4.233c-6.888,2.83-12.77,6.907-17.683,12.223c-4.901,5.314-8.668,11.617-11.249,18.876
			c-2.598,7.256-3.9,15.158-3.9,23.709c0,8.552,1.332,16.853,3.994,24.918c2.665,8.074,6.393,15.204,11.155,21.42
			c4.777,6.212,10.283,11.089,16.523,14.63c6.24,3.554,12.856,5.322,19.873,5.322c3.37,0,7.434-0.723,12.202-2.18
			c4.772-1.437,10.521-3.38,17.252-5.808c0.981-0.312,1.606-1.408,1.903-3.255c0.278-1.864,0.415-4.153,0.415-6.902
			c0-9.841-0.208-17.012-0.634-21.533c-0.282-5.161-1.01-8.992-2.205-11.495c-1.185-2.498-3.677-5.032-7.46-7.622v-1.938
			c5.036,0.334,9.204,0.608,12.509,0.848c3.291,0.243,6.274,0.365,8.946,0.365c1.674,0,4.341-0.16,7.994-0.483
			c4.063-0.326,7.844-0.563,11.358-0.73l-0.629,1.938c-2.677,1.293-4.421,3.424-5.263,6.41c-0.844,2.995-1.339,6.815-1.472,11.499
			l-0.204,1.94c-0.293,4.999-0.466,9.59-0.53,13.782c-0.08,4.203-0.114,10.088-0.114,17.666
			C627.069,596.941,626.836,598.038,626.331,599.242"/>
		<path fill="#221815" d="M654.956,610.731c-3.023,0.167-6.988,0.486-11.9,0.97v-2.18c2.959-1.607,5.269-3.667,6.949-6.171
			c1.68-2.493,2.592-5.514,2.731-9.069c0.272-11.29,0.421-28.144,0.421-50.571c0-7.576-0.149-15.843-0.421-24.798
			c-0.278-8.949-0.62-18.104-1.051-27.462c-0.278-4.348-1.055-8.018-2.319-11.002c-1.249-2.982-3.708-5.694-7.35-8.109v-2.178
			c4.891,0.488,8.976,0.852,12.197,1.096c3.236,0.239,6.236,0.355,9.05,0.355c2.234,0,5.614-0.161,10.101-0.48
			c4.905-0.32,8.549-0.561,10.932-0.727v1.934c-3.088,1.613-5.298,4.16-6.62,7.623c-1.333,3.471-2.216,7.461-2.627,11.976
			c-0.425,6.449-0.624,16.859-0.624,31.217v20.073c0,11.138,0.417,27.828,1.245,50.081c0.431,7.59,3.787,12.998,10.109,16.215v2.18
			c-1.274-0.163-2.121-0.237-2.538-0.237c-5.461-0.323-9.5-0.566-12.087-0.733c-2.594-0.156-5.149-0.237-7.687-0.237
			C660.799,610.494,657.97,610.575,654.956,610.731"/>
		<path fill="#221815" d="M821.586,599.242c-0.501,1.215-1.443,2.222-2.849,3.025c-1.259,0.484-3.642,1.298-7.152,2.424
			c-2.665,0.647-4.768,1.291-6.313,1.935c-10.799,4.352-23.834,6.533-39.127,6.533c-9.958,0-19.429-1.854-28.398-5.566
			c-8.985-3.712-16.876-8.911-23.68-15.607c-6.8-6.693-12.087-14.362-15.874-22.992c-3.796-8.619-5.695-17.691-5.695-27.224
			c0-9.662,1.829-18.949,5.482-27.816c3.642-8.87,8.866-16.735,15.666-23.597c6.808-6.852,14.942-12.257,24.408-16.209
			c9.469-3.94,19.813-5.923,31.038-5.923c4.059,0,8.48,0.284,13.257,0.848c4.754,0.557,10.16,1.405,16.201,2.542
			c1.815,0.321,4.203,1.121,7.143,2.413c2.25,0.973,3.732,1.454,4.425,1.454c0.842,0,1.888-0.08,3.147-0.247
			c1.269-0.146,2.32-0.234,3.168-0.234c1.541,0,2.552,0.203,3.053,0.601c0.482,0.408,0.729,0.852,0.729,1.333v5.558
			c0,1.791,0.139,4.195,0.421,7.27c0.139,2.9,0.213,4.923,0.213,6.046c0,1.288-0.351,2.668-1.055,4.104
			c-0.689,1.451-1.903,2.184-3.569,2.184c-1.416,0-3.865-2.253-7.374-6.776c-2.096-2.74-4.034-5.044-5.774-6.891
			c-1.768-1.858-3.691-3.263-5.794-4.237c-4.067-2.091-8.092-3.625-12.097-4.595c-3.994-0.973-8.247-1.454-12.727-1.454
			c-8.425,0-16.067,1.415-22.932,4.233c-6.874,2.83-12.766,6.907-17.683,12.223c-4.911,5.314-8.662,11.617-11.249,18.876
			c-2.592,7.256-3.9,15.158-3.9,23.709c0,8.552,1.343,16.853,4.004,24.918c2.665,8.074,6.387,15.204,11.145,21.42
			c4.768,6.212,10.279,11.089,16.514,14.63c6.255,3.554,12.876,5.322,19.899,5.322c3.349,0,7.433-0.723,12.201-2.18
			c4.763-1.437,10.516-3.38,17.242-5.808c0.981-0.312,1.615-1.408,1.889-3.255c0.292-1.864,0.441-4.153,0.441-6.902
			c0-9.841-0.229-17.012-0.644-21.533c-0.278-5.161-1.006-8.992-2.206-11.495c-1.199-2.498-3.683-5.032-7.474-7.622v-1.938
			c5.055,0.334,9.229,0.608,12.525,0.848c3.29,0.243,6.274,0.365,8.935,0.365c1.686,0,4.357-0.16,7.994-0.483
			c4.069-0.326,7.855-0.563,11.38-0.73l-0.644,1.938c-2.672,1.293-4.421,3.424-5.259,6.41c-0.848,2.995-1.333,6.815-1.472,11.499
			l-0.208,1.94c-0.284,4.999-0.456,9.59-0.535,13.782c-0.066,4.203-0.095,10.088-0.095,17.666
			C822.324,596.941,822.072,598.038,821.586,599.242"/>
		<path fill="#221815" d="M964.53,592.342c1.691,4.521,3.732,8.119,6.107,10.771c2.397,2.661,5.402,4.801,9.054,6.408v2.661
			c-4.634-0.803-8.638-1.363-11.993-1.688c-3.376-0.328-6.597-0.487-9.674-0.487c-3.088,0-6.493,0.159-10.215,0.487
			c-3.707,0.326-8.024,0.811-12.939,1.451v-2.424c0-0.803,0.772-2.17,2.314-4.108c2.117-2.74,3.156-4.922,3.156-6.526
			c0-1.143-0.145-2.38-0.417-3.764c-0.282-1.363-0.56-2.203-0.846-2.542l-13.04-35.555c-5.759-0.654-12.133-0.967-19.14-0.967
			c-7.439,0-14.041,0.313-19.789,0.967l-14.922,38.464c-1.269,3.078-1.903,5.645-1.903,7.746c0,2.587,0.981,4.848,2.943,6.771v1.938
			c-3.781-0.64-6.904-1.047-9.367-1.214c-2.443-0.149-4.936-0.237-7.46-0.237c-2.804,0-5.614,0.118-8.414,0.355
			c-2.811,0.247-6.389,0.689-10.73,1.333l2.091-2.661c4.208-1.607,7.82-3.822,10.849-6.65c3.012-2.827,5.569-6.653,7.676-11.486
			l40.178-97.761c0.278-0.634,0.421-1.45,0.421-2.417c0-3.381-1.189-6.779-3.578-10.158c-2.379-3.389-5.471-6.373-9.243-8.946
			l-0.639-1.944c8.411,0.651,16.271,0.971,23.566,0.971h7.573l7.993,20.318L964.53,592.342z M922.251,547.832v-0.481l-14.718-39.45
			l-15.993,39.45v0.481c3.354,0.153,8.414,0.237,15.139,0.237C913.697,548.069,918.882,547.985,922.251,547.832"/>
	</g>
	<path d="M1405.636,506.309c-28.527,0-51.653,23.126-51.653,51.653c0,28.527,23.125,51.653,51.653,51.653
		c13.539,0,25.855-5.216,35.065-13.739l-10.965-15.577c-6,6.476-14.574,10.533-24.1,10.533c-18.154,0-32.87-14.716-32.87-32.87
		s14.717-32.87,32.87-32.87c14.902,0,27.48,9.92,31.51,23.513h-50.859v18.713h67.563h1.694h0.883
		c0.556-3.036,0.861-6.16,0.861-9.357C1457.289,529.434,1434.163,506.309,1405.636,506.309z"/>
	<path fill="#00913A" d="M491.937,611.775c-9.067-20.179-11.766-47.704-11.766-73.079c0-25.465,1.212-49.348,11.849-71.855h-9.733
		c-9.441,20.194-19.705,45.357-19.575,71.855c0.087,17.712,8.326,48.114,19.427,73.079H491.937z"/>
	<path fill="#00913A" d="M996.103,611.775c9.067-20.179,11.766-47.704,11.766-73.079c0-25.465-1.212-49.348-11.849-71.855h9.733
		c9.441,20.194,19.705,45.357,19.575,71.855c-0.087,17.712-8.326,48.114-19.427,73.079H996.103z"/>
</g>
<g>
	<path d="M3397.605,583.506c-5.609,4.503-12.728,7.203-20.48,7.203c-18.086,0-32.748-14.661-32.748-32.747v-32.94h49.661v-18.713
		h-49.661v-18.95h-18.713v18.95h-12.452v18.713h12.452v32.94c0,28.421,23.04,51.46,51.461,51.46
		c11.766,0,22.603-3.957,31.271-10.601L3397.605,583.506z"/>
	<path d="M3166.606,506.309c-12.487,0-23.939,4.431-32.87,11.807V488.63v-18.713h-18.713h-15.331v18.713h15.331v66.64
		c-0.046,0.891-0.07,1.788-0.07,2.691s0.024,1.8,0.07,2.691v30.249h-15.331v18.713h15.331h18.713v-11.807
		c8.931,7.376,20.383,11.807,32.87,11.807c28.527,0,51.652-23.126,51.652-51.652S3195.133,506.309,3166.606,506.309z
		 M3166.606,590.831c-18.153,0-32.868-14.715-32.87-32.867v-0.005c0.001-18.152,14.717-32.867,32.87-32.867
		c18.153,0,32.87,14.716,32.87,32.87S3184.76,590.831,3166.606,590.831z"/>
	<path fill="#00913A" d="M3298.402,469.917c-7.97,0-14.431,6.461-14.431,14.431c0,3.331,1.14,6.39,3.036,8.833
		c-1.467,6.363-5.343,17.316-15.28,24.03c-5.594,3.779-9.881,7.508-13.132,11.851c-3.251-4.343-7.537-8.072-13.131-11.851
		c-9.731-6.574-13.646-17.194-15.183-23.621c2.09-2.504,3.351-5.724,3.351-9.241c0-7.97-6.461-14.431-14.431-14.431
		c-7.97,0-14.431,6.461-14.431,14.431c0,5.376,2.945,10.056,7.305,12.539c2.091,9.386,7.777,25.319,23.045,35.634
		c10.578,7.146,14.237,11.114,14.237,40.536V584.1c-3.172,2.647-5.193,6.628-5.193,11.082c0,7.97,6.461,14.431,14.431,14.431
		s14.431-6.461,14.431-14.431c0-4.455-2.021-8.436-5.194-11.083v-11.041c0-29.42,3.659-33.389,14.238-40.536
		c15.132-10.223,20.849-25.958,22.986-35.375c4.619-2.406,7.777-7.23,7.777-12.798
		C3312.834,476.378,3306.373,469.917,3298.402,469.917z M3219.2,490.762c-3.542,0-6.414-2.872-6.414-6.414
		c0-3.542,2.872-6.414,6.414-6.414c3.542,0,6.414,2.872,6.414,6.414C3225.615,487.891,3222.743,490.762,3219.2,490.762z
		 M3258.595,601.596c-3.542,0-6.414-2.872-6.414-6.414c0-3.542,2.872-6.414,6.414-6.414c3.542,0,6.414,2.872,6.414,6.414
		C3265.009,598.724,3262.137,601.596,3258.595,601.596z M3298.402,490.762c-3.542,0-6.414-2.872-6.414-6.414
		c0-3.542,2.872-6.414,6.414-6.414s6.414,2.872,6.414,6.414C3304.816,487.891,3301.945,490.762,3298.402,490.762z"/>
	<g>
		<path fill="#221815" d="M2680.71,599.242c-0.486,1.215-1.427,2.222-2.845,3.025c-1.255,0.484-3.638,1.298-7.142,2.424
			c-2.661,0.647-4.762,1.291-6.313,1.935c-10.799,4.352-23.838,6.533-39.134,6.533c-9.97,0-19.422-1.854-28.407-5.566
			c-8.976-3.712-16.865-8.911-23.669-15.607c-6.8-6.693-12.088-14.362-15.875-22.992c-3.791-8.619-5.69-17.691-5.69-27.224
			c0-9.662,1.829-18.949,5.478-27.816c3.642-8.87,8.864-16.735,15.664-23.597c6.81-6.852,14.953-12.257,24.404-16.209
			c9.469-3.94,19.813-5.923,31.038-5.923c4.069,0,8.486,0.284,13.257,0.848c4.768,0.557,10.16,1.405,16.206,2.542
			c1.813,0.321,4.198,1.121,7.147,2.413c2.236,0.973,3.716,1.454,4.415,1.454c0.832,0,1.888-0.08,3.156-0.247
			c1.259-0.146,2.314-0.234,3.152-0.234c1.542,0,2.553,0.203,3.054,0.601c0.5,0.408,0.733,0.852,0.733,1.333v5.558
			c0,1.791,0.149,4.195,0.421,7.27c0.154,2.9,0.213,4.923,0.213,6.046c0,1.288-0.347,2.668-1.05,4.104
			c-0.7,1.451-1.893,2.184-3.575,2.184c-1.392,0-3.85-2.253-7.368-6.776c-2.101-2.74-4.029-5.044-5.784-6.891
			c-1.75-1.858-3.683-3.263-5.78-4.237c-4.077-2.091-8.101-3.625-12.107-4.595c-3.994-0.973-8.232-1.454-12.733-1.454
			c-8.41,0-16.052,1.415-22.916,4.233c-6.888,2.83-12.77,6.907-17.683,12.223c-4.901,5.314-8.668,11.617-11.249,18.876
			c-2.598,7.256-3.9,15.158-3.9,23.709c0,8.552,1.332,16.853,3.994,24.918c2.665,8.074,6.393,15.204,11.155,21.42
			c4.778,6.212,10.283,11.089,16.523,14.63c6.24,3.554,12.856,5.322,19.874,5.322c3.37,0,7.434-0.723,12.202-2.18
			c4.772-1.437,10.521-3.38,17.252-5.808c0.981-0.312,1.605-1.408,1.903-3.255c0.278-1.864,0.416-4.153,0.416-6.902
			c0-9.841-0.208-17.012-0.635-21.533c-0.282-5.161-1.01-8.992-2.205-11.495c-1.185-2.498-3.677-5.032-7.459-7.622v-1.938
			c5.036,0.334,9.204,0.608,12.509,0.848c3.291,0.243,6.274,0.365,8.946,0.365c1.674,0,4.341-0.16,7.994-0.483
			c4.063-0.326,7.844-0.563,11.358-0.73l-0.629,1.938c-2.677,1.293-4.421,3.424-5.263,6.41c-0.844,2.995-1.339,6.815-1.472,11.499
			l-0.204,1.94c-0.293,4.999-0.466,9.59-0.53,13.782c-0.08,4.203-0.114,10.088-0.114,17.666
			C2681.449,596.941,2681.216,598.038,2680.71,599.242"/>
		<path fill="#221815" d="M2709.336,610.731c-3.023,0.167-6.988,0.486-11.9,0.97v-2.18c2.958-1.607,5.269-3.667,6.948-6.171
			c1.68-2.493,2.592-5.514,2.731-9.069c0.272-11.29,0.421-28.144,0.421-50.571c0-7.576-0.149-15.843-0.421-24.798
			c-0.278-8.949-0.62-18.104-1.051-27.462c-0.278-4.348-1.055-8.018-2.319-11.002c-1.249-2.982-3.708-5.694-7.35-8.109v-2.178
			c4.891,0.488,8.976,0.852,12.197,1.096c3.237,0.239,6.236,0.355,9.05,0.355c2.234,0,5.614-0.161,10.101-0.48
			c4.905-0.32,8.549-0.561,10.932-0.727v1.934c-3.088,1.613-5.298,4.16-6.62,7.623c-1.333,3.471-2.216,7.461-2.627,11.976
			c-0.425,6.449-0.625,16.859-0.625,31.217v20.073c0,11.138,0.417,27.828,1.245,50.081c0.431,7.59,3.787,12.998,10.109,16.215v2.18
			c-1.274-0.163-2.121-0.237-2.538-0.237c-5.461-0.323-9.5-0.566-12.087-0.733c-2.594-0.156-5.15-0.237-7.687-0.237
			C2715.179,610.494,2712.349,610.575,2709.336,610.731"/>
		<path fill="#221815" d="M2875.965,599.242c-0.501,1.215-1.443,2.222-2.849,3.025c-1.259,0.484-3.642,1.298-7.152,2.424
			c-2.665,0.647-4.768,1.291-6.313,1.935c-10.799,4.352-23.834,6.533-39.127,6.533c-9.958,0-19.429-1.854-28.398-5.566
			c-8.985-3.712-16.876-8.911-23.68-15.607c-6.8-6.693-12.087-14.362-15.874-22.992c-3.796-8.619-5.695-17.691-5.695-27.224
			c0-9.662,1.829-18.949,5.482-27.816c3.642-8.87,8.866-16.735,15.666-23.597c6.808-6.852,14.942-12.257,24.408-16.209
			c9.469-3.94,19.813-5.923,31.039-5.923c4.059,0,8.48,0.284,13.257,0.848c4.754,0.557,10.16,1.405,16.2,2.542
			c1.815,0.321,4.204,1.121,7.143,2.413c2.25,0.973,3.732,1.454,4.425,1.454c0.842,0,1.888-0.08,3.146-0.247
			c1.269-0.146,2.32-0.234,3.168-0.234c1.541,0,2.552,0.203,3.052,0.601c0.482,0.408,0.729,0.852,0.729,1.333v5.558
			c0,1.791,0.139,4.195,0.421,7.27c0.139,2.9,0.213,4.923,0.213,6.046c0,1.288-0.351,2.668-1.055,4.104
			c-0.689,1.451-1.903,2.184-3.569,2.184c-1.416,0-3.865-2.253-7.374-6.776c-2.095-2.74-4.034-5.044-5.774-6.891
			c-1.769-1.858-3.691-3.263-5.794-4.237c-4.067-2.091-8.093-3.625-12.097-4.595c-3.994-0.973-8.247-1.454-12.727-1.454
			c-8.425,0-16.067,1.415-22.932,4.233c-6.874,2.83-12.766,6.907-17.683,12.223c-4.911,5.314-8.662,11.617-11.249,18.876
			c-2.592,7.256-3.9,15.158-3.9,23.709c0,8.552,1.343,16.853,4.004,24.918c2.665,8.074,6.387,15.204,11.145,21.42
			c4.768,6.212,10.279,11.089,16.514,14.63c6.255,3.554,12.876,5.322,19.899,5.322c3.349,0,7.433-0.723,12.201-2.18
			c4.763-1.437,10.516-3.38,17.242-5.808c0.981-0.312,1.615-1.408,1.889-3.255c0.292-1.864,0.441-4.153,0.441-6.902
			c0-9.841-0.229-17.012-0.644-21.533c-0.278-5.161-1.006-8.992-2.206-11.495c-1.199-2.498-3.683-5.032-7.474-7.622v-1.938
			c5.055,0.334,9.229,0.608,12.525,0.848c3.29,0.243,6.274,0.365,8.935,0.365c1.686,0,4.357-0.16,7.994-0.483
			c4.069-0.326,7.855-0.563,11.38-0.73l-0.644,1.938c-2.672,1.293-4.421,3.424-5.259,6.41c-0.848,2.995-1.333,6.815-1.472,11.499
			l-0.208,1.94c-0.284,4.999-0.456,9.59-0.535,13.782c-0.066,4.203-0.095,10.088-0.095,17.666
			C2876.703,596.941,2876.452,598.038,2875.965,599.242"/>
		<path fill="#221815" d="M3018.91,592.342c1.691,4.521,3.732,8.119,6.107,10.771c2.397,2.661,5.402,4.801,9.054,6.408v2.661
			c-4.634-0.803-8.638-1.363-11.993-1.688c-3.375-0.328-6.596-0.487-9.674-0.487c-3.088,0-6.493,0.159-10.215,0.487
			c-3.707,0.326-8.024,0.811-12.939,1.451v-2.424c0-0.803,0.772-2.17,2.314-4.108c2.116-2.74,3.156-4.922,3.156-6.526
			c0-1.143-0.145-2.38-0.417-3.764c-0.282-1.363-0.56-2.203-0.846-2.542l-13.04-35.555c-5.759-0.654-12.133-0.967-19.14-0.967
			c-7.438,0-14.041,0.313-19.789,0.967l-14.922,38.464c-1.269,3.078-1.903,5.645-1.903,7.746c0,2.587,0.981,4.848,2.943,6.771v1.938
			c-3.781-0.64-6.904-1.047-9.367-1.214c-2.443-0.149-4.936-0.237-7.459-0.237c-2.804,0-5.614,0.118-8.414,0.355
			c-2.811,0.247-6.389,0.689-10.73,1.333l2.091-2.661c4.208-1.607,7.82-3.822,10.849-6.65c3.012-2.827,5.569-6.653,7.676-11.486
			l40.178-97.761c0.278-0.634,0.421-1.45,0.421-2.417c0-3.381-1.189-6.779-3.578-10.158c-2.379-3.389-5.471-6.373-9.243-8.946
			l-0.639-1.944c8.411,0.651,16.271,0.971,23.566,0.971h7.573l7.993,20.318L3018.91,592.342z M2976.631,547.832v-0.481
			l-14.718-39.45l-15.993,39.45v0.481c3.354,0.153,8.414,0.237,15.139,0.237C2968.077,548.069,2973.261,547.985,2976.631,547.832"/>
	</g>
	<path d="M3460.016,506.309c-28.527,0-51.653,23.126-51.653,51.653c0,28.527,23.125,51.653,51.653,51.653
		c13.539,0,25.855-5.216,35.065-13.739l-10.965-15.577c-6,6.476-14.574,10.533-24.1,10.533c-18.154,0-32.87-14.716-32.87-32.87
		s14.717-32.87,32.87-32.87c14.902,0,27.48,9.92,31.51,23.513h-50.859v18.713h67.563h1.694h0.883
		c0.556-3.036,0.861-6.16,0.861-9.357C3511.669,529.434,3488.543,506.309,3460.016,506.309z"/>
	<path fill="#00913A" d="M2546.317,611.775c-9.067-20.179-11.766-47.704-11.766-73.079c0-25.465,1.212-49.348,11.849-71.855h-9.732
		c-9.441,20.194-19.706,45.357-19.575,71.855c0.087,17.712,8.326,48.114,19.427,73.079H2546.317z"/>
	<path fill="#00913A" d="M3050.483,611.775c9.067-20.179,11.765-47.704,11.765-73.079c0-25.465-1.212-49.348-11.849-71.855h9.733
		c9.441,20.194,19.705,45.357,19.575,71.855c-0.087,17.712-8.325,48.114-19.427,73.079H3050.483z"/>
</g>
<g>
</g>
<g>
</g>
<g>
</g>
<g>
</g>
<g>
</g>
<g>
</g>
</svg>
