<?xml version="1.0" encoding="UTF-8" standalone="no"?>
<!DOCTYPE svg PUBLIC "-//W3C//DTD SVG 1.1//EN" "http://www.w3.org/Graphics/SVG/1.1/DTD/svg11.dtd">
<svg version="1.1" xmlns="http://www.w3.org/2000/svg" xmlns:xlink="http://www.w3.org/1999/xlink"
     preserveAspectRatio="xMidYMid meet" viewBox="0 0 646 220">
    <defs>
        <path d="M529.16 139.36C518.88 139.36 510.55 131.03 510.55 120.75C510.55 119.5 510.55 113.26 510.55 102.03L538.77 102.03L538.77 91.39L510.55 91.39L510.55 80.63L499.91 80.63L499.91 91.39L492.84 91.39L492.84 102.03L499.91 102.03C499.91 113.26 499.91 119.5 499.91 120.75C499.91 136.9 513.01 150 529.16 150C535.85 150 542.01 147.75 546.93 143.97C546.52 143.39 544.48 140.49 540.8 135.27C535.98 138 532.1 139.36 529.16 139.36Z"
              id="d1AcRHGLLg"></path>
        <path d="M391.22 97.79L391.61 97.49L392 97.19L392.4 96.9L392.8 96.61L393.21 96.33L393.63 96.06L394.04 95.8L394.47 95.54L394.9 95.29L395.33 95.04L395.77 94.81L396.21 94.58L396.65 94.35L397.1 94.14L397.56 93.93L398.02 93.73L398.48 93.54L398.95 93.36L399.42 93.18L399.89 93.01L400.37 92.85L400.85 92.69L401.34 92.55L401.82 92.41L402.32 92.28L402.81 92.16L403.31 92.05L403.81 91.95L404.32 91.85L404.82 91.77L405.33 91.69L405.85 91.62L406.36 91.56L406.88 91.51L407.4 91.47L407.93 91.44L408.46 91.41L408.98 91.4L409.52 91.39L410.73 91.42L411.92 91.49L413.11 91.61L414.28 91.78L415.43 91.99L416.57 92.25L417.69 92.55L418.79 92.89L419.88 93.28L420.94 93.7L421.98 94.17L423.01 94.67L424 95.21L424.98 95.79L425.93 96.41L426.85 97.06L427.75 97.74L428.62 98.46L429.46 99.21L430.27 99.99L431.05 100.81L431.8 101.65L432.52 102.52L433.21 103.41L433.86 104.34L434.47 105.29L435.05 106.26L435.59 107.26L436.1 108.28L436.56 109.32L436.99 110.39L437.37 111.47L437.72 112.58L438.02 113.7L438.27 114.83L438.49 115.99L438.65 117.16L438.77 118.34L438.85 119.54L438.87 120.75L438.85 121.96L438.77 123.16L438.65 124.34L438.49 125.51L438.27 126.67L438.02 127.81L437.72 128.93L437.37 130.03L436.99 131.11L436.56 132.18L436.1 133.22L435.59 134.24L435.05 135.24L434.47 136.21L433.86 137.16L433.21 138.09L432.52 138.99L431.8 139.86L431.05 140.7L430.27 141.51L429.46 142.29L428.62 143.04L427.75 143.76L426.85 144.44L425.93 145.09L424.98 145.71L424 146.29L423.01 146.83L421.98 147.33L420.94 147.8L419.88 148.23L418.79 148.61L417.69 148.95L416.57 149.25L415.43 149.51L414.28 149.72L413.11 149.89L411.92 150.01L410.73 150.08L409.52 150.11L408.98 150.1L408.46 150.09L407.93 150.06L407.4 150.03L406.88 149.99L406.36 149.94L405.85 149.88L405.33 149.81L404.82 149.73L404.32 149.65L403.81 149.55L403.31 149.45L402.81 149.34L402.32 149.22L401.82 149.09L401.34 148.95L400.85 148.81L400.37 148.65L399.89 148.49L399.42 148.32L398.95 148.15L398.48 147.96L398.02 147.77L397.56 147.57L397.1 147.36L396.65 147.15L396.21 146.92L395.77 146.69L395.33 146.46L394.9 146.21L394.47 145.96L394.04 145.7L393.63 145.44L393.21 145.17L392.8 144.89L392.4 144.6L392 144.31L391.61 144.01L391.22 143.71L390.83 143.4L390.83 150.11L371.49 150.11L371.49 139.47L380.2 139.47L380.2 122.28L380.2 122.24L380.2 122.2L380.19 122.17L380.19 122.13L380.19 122.09L380.19 122.05L380.19 122.01L380.18 121.98L380.18 121.94L380.18 121.9L380.18 121.86L380.18 121.82L380.18 121.78L380.18 121.75L380.17 121.71L380.17 121.67L380.17 121.63L380.17 121.59L380.17 121.56L380.17 121.52L380.17 121.48L380.17 121.44L380.17 121.4L380.17 121.36L380.16 121.33L380.16 121.29L380.16 121.25L380.16 121.21L380.16 121.17L380.16 121.13L380.16 121.1L380.16 121.06L380.16 121.02L380.16 120.98L380.16 120.94L380.16 120.9L380.16 120.87L380.16 120.83L380.16 120.79L380.16 120.71L380.16 120.67L380.16 120.63L380.16 120.6L380.16 120.56L380.16 120.52L380.16 120.48L380.16 120.44L380.16 120.4L380.16 120.37L380.16 120.33L380.16 120.29L380.16 120.25L380.16 120.21L380.16 120.17L380.17 120.14L380.17 120.1L380.17 120.06L380.17 120.02L380.17 119.98L380.17 119.94L380.17 119.91L380.17 119.87L380.17 119.83L380.17 119.79L380.18 119.75L380.18 119.72L380.18 119.68L380.18 119.64L380.18 119.6L380.18 119.56L380.18 119.53L380.19 119.49L380.19 119.45L380.19 119.41L380.19 119.37L380.19 119.34L380.2 119.3L380.2 119.26L380.2 119.22L380.2 81.35L371.49 81.35L371.49 70.71L390.83 70.71L390.83 98.11L391.22 97.79ZM406.87 102.26L405.59 102.48L404.34 102.8L403.13 103.19L401.95 103.66L400.82 104.21L399.73 104.84L398.69 105.53L397.69 106.29L396.75 107.11L395.87 107.99L395.05 108.93L394.29 109.92L393.6 110.96L392.98 112.05L392.43 113.19L391.95 114.36L391.56 115.58L391.25 116.83L391.02 118.11L390.88 119.42L390.83 120.75L390.83 120.75L390.88 122.09L391.02 123.39L391.25 124.68L391.56 125.92L391.95 127.14L392.43 128.31L392.98 129.45L393.6 130.54L394.29 131.58L395.05 132.57L395.87 133.51L396.75 134.39L397.69 135.22L398.69 135.97L399.73 136.67L400.82 137.29L401.95 137.84L403.13 138.31L404.34 138.71L405.59 139.02L406.87 139.25L408.18 139.38L409.52 139.43L410.85 139.38L412.16 139.25L413.44 139.02L414.69 138.71L415.9 138.31L417.08 137.84L418.21 137.29L419.3 136.67L420.35 135.97L421.34 135.22L422.28 134.39L423.16 133.51L423.98 132.57L424.74 131.58L425.43 130.54L426.05 129.45L426.6 128.31L427.08 127.14L427.47 125.92L427.78 124.67L428.01 123.39L428.15 122.09L428.2 120.75L428.15 119.42L428.01 118.11L427.78 116.83L427.47 115.58L427.08 114.37L426.6 113.19L426.05 112.05L425.43 110.96L424.74 109.92L423.98 108.93L423.16 107.99L422.28 107.11L421.34 106.29L420.35 105.53L419.3 104.84L418.21 104.21L417.08 103.66L415.9 103.19L414.69 102.8L413.44 102.48L412.16 102.26L410.85 102.12L409.52 102.07L408.18 102.12L406.87 102.26Z"
              id="c63MxIwHA"></path>
        <path d="M485.09 70.74L485.42 70.77L485.75 70.82L486.07 70.88L486.39 70.95L486.7 71.03L487.01 71.13L487.31 71.24L487.61 71.36L487.9 71.49L488.19 71.63L488.47 71.78L488.74 71.94L489.01 72.11L489.26 72.29L489.51 72.49L489.76 72.69L489.99 72.9L490.22 73.11L490.44 73.34L490.65 73.58L490.85 73.82L491.04 74.07L491.22 74.33L491.39 74.59L491.55 74.87L491.71 75.14L491.85 75.43L491.98 75.72L492.1 76.02L492.2 76.32L492.3 76.63L492.38 76.94L492.45 77.26L492.51 77.58L492.56 77.91L492.59 78.24L492.61 78.58L492.62 78.91L492.62 79.15L492.61 79.39L492.59 79.62L492.57 79.85L492.54 80.08L492.5 80.31L492.46 80.53L492.41 80.75L492.36 80.98L492.3 81.19L492.23 81.41L492.16 81.62L492.09 81.83L492 82.04L491.91 82.25L491.82 82.45L491.72 82.65L491.62 82.84L491.51 83.04L491.4 83.22L491.28 83.41L491.15 83.59L491.02 83.77L490.89 83.95L490.75 84.12L490.61 84.29L490.46 84.45L490.31 84.61L490.16 84.77L490 84.92L489.84 85.07L489.67 85.21L489.5 85.35L489.32 85.48L489.14 85.61L488.96 85.74L488.78 85.86L488.59 85.97L488.4 86.08L488.2 86.19L488.11 86.6L488 87.02L487.89 87.45L487.77 87.89L487.64 88.35L487.51 88.82L487.36 89.29L487.2 89.78L487.03 90.27L486.86 90.77L486.67 91.28L486.47 91.79L486.26 92.31L486.04 92.84L485.8 93.37L485.55 93.9L485.3 94.44L485.02 94.98L484.74 95.52L484.44 96.07L484.13 96.61L483.8 97.16L483.46 97.7L483.1 98.25L482.73 98.79L482.34 99.33L481.94 99.87L481.52 100.4L481.09 100.93L480.64 101.45L480.17 101.97L479.68 102.48L479.18 102.99L478.66 103.49L478.12 103.98L477.56 104.46L476.98 104.94L476.39 105.4L475.77 105.85L475.14 106.29L474.69 106.59L474.27 106.89L473.85 107.18L473.45 107.47L473.06 107.76L472.69 108.05L472.33 108.35L471.99 108.64L471.66 108.95L471.34 109.25L471.03 109.57L470.74 109.9L470.46 110.24L470.19 110.59L469.94 110.96L469.69 111.34L469.46 111.74L469.24 112.16L469.03 112.6L468.84 113.06L468.65 113.55L468.48 114.06L468.31 114.6L468.16 115.17L468.02 115.76L467.89 116.39L467.77 117.05L467.66 117.75L467.56 118.48L467.46 119.25L467.38 120.06L467.31 120.9L467.25 121.79L467.19 122.73L467.15 123.71L467.11 124.73L467.08 125.81L467.06 126.93L467.05 128.1L467.05 129.33L467.05 135.61L467.18 135.72L467.31 135.84L467.44 135.96L467.57 136.08L467.69 136.2L467.81 136.33L467.93 136.46L468.05 136.6L468.16 136.73L468.27 136.87L468.37 137.01L468.48 137.15L468.58 137.3L468.68 137.44L468.77 137.59L468.86 137.74L468.95 137.9L469.04 138.05L469.12 138.21L469.2 138.37L469.27 138.53L469.34 138.69L469.41 138.86L469.48 139.03L469.54 139.2L469.6 139.37L469.65 139.54L469.7 139.71L469.75 139.89L469.79 140.06L469.83 140.24L469.86 140.42L469.89 140.6L469.92 140.78L469.94 140.97L469.96 141.15L469.98 141.34L469.99 141.53L470 141.71L470 141.9L469.99 142.24L469.97 142.58L469.94 142.91L469.89 143.23L469.83 143.56L469.76 143.88L469.68 144.19L469.58 144.5L469.47 144.8L469.35 145.1L469.22 145.39L469.08 145.67L468.93 145.95L468.77 146.22L468.6 146.49L468.42 146.75L468.22 147L468.02 147.24L467.81 147.48L467.6 147.7L467.37 147.92L467.13 148.13L466.89 148.33L466.64 148.52L466.38 148.71L466.12 148.88L465.84 149.04L465.57 149.19L465.28 149.33L464.99 149.46L464.69 149.58L464.39 149.69L464.08 149.78L463.77 149.87L463.45 149.94L463.13 150L462.8 150.05L462.47 150.08L462.13 150.1L461.8 150.11L461.46 150.1L461.12 150.08L460.79 150.05L460.47 150L460.14 149.94L459.83 149.87L459.51 149.78L459.2 149.69L458.9 149.58L458.6 149.46L458.31 149.33L458.03 149.19L457.75 149.04L457.48 148.88L457.21 148.71L456.95 148.52L456.7 148.33L456.46 148.13L456.22 147.92L456 147.7L455.78 147.48L455.57 147.24L455.37 147L455.18 146.75L455 146.49L454.82 146.22L454.66 145.95L454.51 145.67L454.37 145.39L454.24 145.1L454.12 144.8L454.01 144.5L453.92 144.19L453.83 143.88L453.76 143.56L453.7 143.23L453.66 142.91L453.62 142.58L453.6 142.24L453.59 141.9L453.6 141.71L453.6 141.53L453.61 141.34L453.63 141.15L453.65 140.97L453.67 140.78L453.7 140.6L453.73 140.42L453.76 140.24L453.8 140.06L453.84 139.89L453.89 139.71L453.94 139.54L454 139.37L454.05 139.2L454.11 139.03L454.18 138.86L454.25 138.69L454.32 138.53L454.39 138.37L454.47 138.21L454.55 138.05L454.64 137.9L454.73 137.74L454.82 137.59L454.91 137.44L455.01 137.3L455.11 137.15L455.22 137.01L455.32 136.87L455.43 136.73L455.55 136.6L455.66 136.46L455.78 136.33L455.9 136.2L456.03 136.08L456.15 135.96L456.28 135.84L456.41 135.72L456.55 135.61L456.55 129.33L456.54 128.1L456.53 126.93L456.51 125.81L456.48 124.73L456.44 123.71L456.4 122.73L456.34 121.79L456.28 120.9L456.21 120.06L456.13 119.25L456.04 118.48L455.93 117.75L455.82 117.05L455.7 116.39L455.57 115.76L455.43 115.17L455.28 114.6L455.11 114.06L454.94 113.55L454.75 113.06L454.56 112.6L454.35 112.16L454.13 111.74L453.9 111.34L453.66 110.96L453.4 110.59L453.13 110.24L452.85 109.9L452.56 109.57L452.26 109.25L451.94 108.95L451.6 108.64L451.26 108.35L450.9 108.05L450.53 107.76L450.14 107.47L449.74 107.18L449.33 106.89L448.9 106.59L448.45 106.29L447.81 105.85L447.19 105.39L446.59 104.92L446.01 104.45L445.45 103.96L444.91 103.46L444.38 102.96L443.87 102.45L443.39 101.93L442.91 101.41L442.46 100.88L442.02 100.34L441.6 99.8L441.2 99.26L440.81 98.72L440.44 98.17L440.08 97.62L439.74 97.07L439.41 96.52L439.1 95.97L438.8 95.42L438.51 94.87L438.24 94.33L437.98 93.79L437.74 93.25L437.5 92.71L437.28 92.18L437.07 91.66L436.87 91.14L436.68 90.63L436.51 90.13L436.34 89.63L436.19 89.15L436.04 88.67L435.91 88.2L435.78 87.75L435.66 87.3L435.55 86.87L435.45 86.45L435.36 86.04L435.17 85.93L434.99 85.82L434.81 85.7L434.64 85.58L434.47 85.45L434.3 85.32L434.13 85.19L433.97 85.05L433.82 84.91L433.66 84.76L433.51 84.61L433.37 84.46L433.23 84.3L433.09 84.14L432.95 83.97L432.83 83.8L432.7 83.63L432.58 83.45L432.46 83.28L432.35 83.09L432.25 82.91L432.14 82.72L432.05 82.53L431.95 82.34L431.87 82.14L431.78 81.94L431.71 81.74L431.63 81.53L431.57 81.33L431.51 81.12L431.45 80.91L431.4 80.69L431.35 80.48L431.32 80.26L431.28 80.04L431.25 79.82L431.23 79.59L431.22 79.37L431.21 79.14L431.21 78.91L431.21 78.58L431.23 78.24L431.27 77.91L431.31 77.58L431.37 77.26L431.44 76.94L431.53 76.63L431.62 76.32L431.73 76.02L431.85 75.72L431.98 75.43L432.12 75.15L432.27 74.87L432.43 74.59L432.61 74.33L432.79 74.07L432.98 73.82L433.18 73.58L433.39 73.34L433.61 73.11L433.83 72.9L434.07 72.69L434.31 72.49L434.56 72.3L434.82 72.11L435.09 71.94L435.36 71.78L435.64 71.63L435.92 71.49L436.21 71.36L436.51 71.24L436.81 71.13L437.12 71.04L437.44 70.95L437.75 70.88L438.08 70.82L438.4 70.77L438.73 70.74L439.07 70.72L439.41 70.71L439.75 70.72L440.08 70.74L440.41 70.77L440.74 70.82L441.06 70.88L441.38 70.95L441.69 71.04L442 71.13L442.3 71.24L442.6 71.36L442.89 71.49L443.18 71.63L443.46 71.78L443.73 71.94L443.99 72.11L444.25 72.3L444.5 72.49L444.74 72.69L444.98 72.9L445.21 73.11L445.42 73.34L445.63 73.58L445.84 73.82L446.03 74.07L446.21 74.33L446.38 74.59L446.54 74.87L446.69 75.15L446.83 75.43L446.96 75.72L447.08 76.02L447.19 76.32L447.29 76.63L447.37 76.94L447.44 77.26L447.5 77.58L447.55 77.91L447.58 78.24L447.6 78.58L447.61 78.91L447.61 79.06L447.6 79.21L447.6 79.36L447.59 79.51L447.58 79.66L447.56 79.8L447.54 79.95L447.52 80.09L447.5 80.24L447.48 80.38L447.45 80.52L447.42 80.66L447.39 80.8L447.36 80.94L447.32 81.08L447.28 81.22L447.24 81.35L447.2 81.49L447.15 81.62L447.1 81.76L447.05 81.89L447 82.02L446.94 82.15L446.89 82.28L446.83 82.41L446.77 82.53L446.7 82.66L446.64 82.78L446.57 82.9L446.5 83.03L446.43 83.15L446.36 83.27L446.28 83.38L446.21 83.5L446.13 83.61L446.05 83.73L445.96 83.84L445.88 83.95L445.79 84.06L445.7 84.17L445.77 84.44L445.85 84.73L445.92 85.03L446.01 85.33L446.1 85.64L446.2 85.96L446.3 86.28L446.41 86.61L446.52 86.94L446.64 87.28L446.77 87.62L446.91 87.97L447.05 88.32L447.2 88.68L447.36 89.03L447.53 89.39L447.7 89.76L447.88 90.12L448.07 90.48L448.27 90.85L448.48 91.21L448.7 91.58L448.92 91.94L449.16 92.3L449.4 92.66L449.66 93.02L449.92 93.38L450.2 93.73L450.48 94.08L450.77 94.43L451.08 94.77L451.4 95.11L451.72 95.44L452.06 95.77L452.41 96.09L452.77 96.41L453.14 96.71L453.53 97.01L453.92 97.31L454.33 97.59L454.57 97.75L454.8 97.91L455.04 98.07L455.26 98.23L455.49 98.4L455.71 98.56L455.93 98.72L456.15 98.88L456.37 99.04L456.58 99.2L456.79 99.36L457 99.53L457.2 99.69L457.41 99.85L457.6 100.01L457.8 100.18L458 100.34L458.19 100.51L458.38 100.67L458.56 100.84L458.75 101L458.93 101.17L459.11 101.34L459.29 101.51L459.46 101.68L459.63 101.85L459.8 102.02L459.97 102.19L460.14 102.36L460.3 102.53L460.46 102.71L460.62 102.88L460.77 103.06L460.92 103.24L461.08 103.42L461.22 103.6L461.37 103.78L461.51 103.96L461.66 104.14L461.8 104.33L461.94 104.14L462.08 103.96L462.22 103.78L462.37 103.6L462.52 103.42L462.67 103.24L462.82 103.06L462.98 102.88L463.13 102.71L463.29 102.53L463.46 102.36L463.62 102.19L463.79 102.02L463.96 101.85L464.13 101.68L464.31 101.51L464.48 101.34L464.66 101.17L464.84 101L465.03 100.84L465.22 100.67L465.4 100.51L465.6 100.34L465.79 100.18L465.99 100.01L466.19 99.85L466.39 99.69L466.59 99.53L466.8 99.36L467.01 99.2L467.22 99.04L467.44 98.88L467.66 98.72L467.88 98.56L468.1 98.4L468.33 98.23L468.56 98.07L468.79 97.91L469.02 97.75L469.26 97.59L469.68 97.3L470.08 97L470.47 96.69L470.85 96.38L471.22 96.06L471.58 95.73L471.92 95.39L472.25 95.05L472.57 94.71L472.88 94.36L473.18 94L473.47 93.64L473.75 93.28L474.01 92.91L474.27 92.55L474.52 92.18L474.75 91.81L474.98 91.43L475.2 91.06L475.41 90.69L475.61 90.32L475.8 89.94L475.98 89.57L476.15 89.2L476.32 88.84L476.48 88.47L476.63 88.11L476.77 87.76L476.9 87.4L477.03 87.06L477.15 86.71L477.26 86.38L477.37 86.05L477.47 85.72L477.56 85.4L477.65 85.09L477.73 84.79L477.81 84.5L477.88 84.21L477.94 83.93L477.86 83.83L477.79 83.72L477.71 83.62L477.63 83.51L477.56 83.4L477.49 83.29L477.42 83.17L477.35 83.06L477.28 82.95L477.22 82.83L477.16 82.71L477.1 82.6L477.04 82.48L476.98 82.36L476.92 82.23L476.87 82.11L476.82 81.99L476.77 81.86L476.72 81.74L476.68 81.61L476.63 81.49L476.59 81.36L476.55 81.23L476.52 81.1L476.48 80.97L476.45 80.84L476.42 80.7L476.39 80.57L476.36 80.44L476.34 80.3L476.31 80.17L476.29 80.03L476.28 79.89L476.26 79.75L476.25 79.62L476.24 79.48L476.23 79.34L476.22 79.2L476.22 79.06L476.22 78.91L476.22 78.58L476.25 78.24L476.28 77.91L476.33 77.58L476.38 77.26L476.46 76.94L476.54 76.63L476.64 76.32L476.74 76.02L476.86 75.72L476.99 75.43L477.13 75.14L477.29 74.87L477.45 74.59L477.62 74.33L477.8 74.07L477.99 73.82L478.19 73.58L478.4 73.34L478.62 73.11L478.85 72.9L479.08 72.69L479.33 72.49L479.58 72.29L479.83 72.11L480.1 71.94L480.37 71.78L480.65 71.63L480.94 71.49L481.23 71.36L481.52 71.24L481.83 71.13L482.14 71.03L482.45 70.95L482.77 70.88L483.09 70.82L483.42 70.77L483.75 70.74L484.08 70.72L484.42 70.71L484.76 70.72L485.09 70.74ZM459.22 139.33L458.44 140.49L458.15 141.9L458.44 143.32L459.22 144.48L460.38 145.26L461.8 145.55L463.21 145.26L464.37 144.48L465.15 143.32L465.44 141.9L465.15 140.49L464.37 139.33L463.21 138.55L461.8 138.26L460.38 138.55L459.22 139.33ZM481.84 76.34L481.06 77.49L480.77 78.91L481.06 80.33L481.84 81.49L483 82.27L484.42 82.56L485.84 82.27L487 81.49L487.78 80.33L488.06 78.91L487.78 77.49L487 76.34L485.84 75.55L484.42 75.27L483 75.55L481.84 76.34ZM436.83 76.34L436.05 77.49L435.76 78.91L436.05 80.33L436.83 81.49L437.99 82.27L439.41 82.56L440.83 82.27L441.98 81.49L442.77 80.33L443.05 78.91L442.77 77.49L441.98 76.34L440.83 75.55L439.41 75.27L437.99 75.55L436.83 76.34Z"
              id="dTPKdxfwX"></path>
        <path d="M133.37 144.21C133.09 144.9 132.55 145.47 131.75 145.93C131.04 146.21 129.68 146.67 127.69 147.31C126.18 147.68 124.98 148.04 124.1 148.41C117.96 150.88 110.55 152.12 101.86 152.12C96.19 152.12 90.82 151.07 85.72 148.96C80.61 146.85 76.13 143.89 72.26 140.09C68.4 136.28 65.39 131.93 63.24 127.02C61.09 122.12 60.01 116.97 60.01 111.55C60.01 106.06 61.05 100.78 63.12 95.74C65.19 90.7 68.16 86.23 72.02 82.33C75.89 78.43 80.52 75.36 85.89 73.12C91.27 70.88 97.15 69.75 103.53 69.75C105.85 69.75 108.36 69.91 111.07 70.23C113.78 70.55 116.84 71.03 120.28 71.68C121.31 71.86 122.66 72.31 124.34 73.05C125.61 73.6 126.45 73.87 126.85 73.87C127.32 73.87 127.92 73.83 128.64 73.73C129.36 73.65 129.96 73.6 130.43 73.6C131.31 73.6 131.89 73.72 132.17 73.94C132.45 74.18 132.59 74.43 132.59 74.7C132.59 75.02 132.59 77.54 132.59 77.86C132.59 78.88 132.67 80.24 132.83 81.99C132.91 83.64 132.95 84.79 132.95 85.43C132.95 86.16 132.75 86.94 132.35 87.76C131.95 88.58 131.27 89 130.32 89C129.53 89 128.13 87.72 126.13 85.15C124.94 83.59 123.84 82.28 122.84 81.23C121.85 80.18 120.75 79.38 119.56 78.83C117.24 77.64 114.95 76.77 112.68 76.21C110.41 75.66 108 75.39 105.44 75.39C100.66 75.39 96.32 76.19 92.42 77.79C88.5 79.4 85.16 81.72 82.37 84.74C79.58 87.76 77.44 91.34 75.97 95.47C74.5 99.59 73.76 104.08 73.76 108.94C73.76 113.8 74.51 118.52 76.03 123.1C77.54 127.69 79.66 131.75 82.37 135.28C85.08 138.81 88.21 141.58 91.76 143.59C95.3 145.61 99.06 146.62 103.05 146.62C104.97 146.62 107.28 146.21 109.99 145.38C112.7 144.56 115.97 143.46 119.79 142.08C120.35 141.9 120.7 141.28 120.87 140.23C121.03 139.17 121.11 137.87 121.11 136.31C121.11 130.71 120.99 126.64 120.75 124.07C120.59 121.13 120.17 118.96 119.5 117.53C118.82 116.11 117.41 114.67 115.26 113.2C115.26 113.09 115.26 112.21 115.26 112.1C118.12 112.29 120.49 112.45 122.36 112.58C124.24 112.72 125.93 112.79 127.45 112.79C128.4 112.79 129.92 112.7 131.99 112.52C134.3 112.33 136.45 112.2 138.45 112.1C138.41 112.21 138.13 113.09 138.09 113.2C136.57 113.94 135.58 115.15 135.1 116.85C134.62 118.55 134.34 120.72 134.26 123.38C134.25 123.49 134.16 124.37 134.15 124.48C133.98 127.32 133.88 129.93 133.85 132.32C133.8 134.7 133.78 138.05 133.78 142.36C133.79 142.9 133.65 143.53 133.37 144.21"
              id="b73pD54fZ2"></path>
        <path d="M149.63 150.74C147.92 150.84 145.66 151.02 142.87 151.29C142.87 151.17 142.87 150.18 142.87 150.05C144.55 149.14 145.87 147.97 146.82 146.55C147.78 145.13 148.29 143.41 148.37 141.39C148.53 134.98 148.61 125.4 148.61 112.65C148.61 108.35 148.53 103.65 148.37 98.56C148.21 93.47 148.02 88.27 147.78 82.95C147.62 80.48 147.18 78.39 146.46 76.7C145.75 75 144.35 73.46 142.28 72.09C142.28 71.96 142.28 70.97 142.28 70.85C145.06 71.13 147.38 71.34 149.21 71.47C151.05 71.61 152.76 71.68 154.36 71.68C155.62 71.68 157.55 71.58 160.1 71.4C162.88 71.22 164.95 71.08 166.31 70.99C166.31 71.1 166.31 71.98 166.31 72.09C164.55 73.01 163.3 74.45 162.55 76.42C161.79 78.39 161.29 80.66 161.05 83.23C160.81 86.89 160.7 92.81 160.7 100.97C160.7 102.11 160.7 111.24 160.7 112.38C160.7 118.71 160.94 128.19 161.41 140.84C161.65 145.15 163.56 148.23 167.15 150.06C167.15 150.18 167.15 151.17 167.15 151.29C166.43 151.2 165.95 151.16 165.71 151.16C162.61 150.98 160.31 150.84 158.84 150.74C157.37 150.65 155.91 150.61 154.47 150.61C152.95 150.61 151.35 150.65 149.63 150.74"
              id="c2VDF7myHB"></path>
        <path d="M244.34 144.21C244.05 144.9 243.52 145.47 242.72 145.93C242 146.21 240.65 146.67 238.65 147.31C237.14 147.68 235.94 148.04 235.06 148.41C228.93 150.88 221.52 152.12 212.83 152.12C207.17 152.12 201.78 151.07 196.69 148.96C191.58 146.85 187.1 143.89 183.23 140.09C179.36 136.28 176.36 131.93 174.21 127.02C172.05 122.12 170.97 116.97 170.97 111.55C170.97 106.06 172.01 100.78 174.09 95.74C176.16 90.7 179.12 86.23 182.99 82.33C186.86 78.43 191.48 75.36 196.86 73.12C202.24 70.88 208.12 69.75 214.5 69.75C216.81 69.75 219.32 69.91 222.04 70.23C224.74 70.55 227.81 71.03 231.24 71.68C232.27 71.86 233.63 72.31 235.3 73.05C236.58 73.6 237.42 73.87 237.82 73.87C238.3 73.87 238.89 73.83 239.61 73.73C240.33 73.65 240.92 73.6 241.41 73.6C242.28 73.6 242.86 73.72 243.14 73.94C243.42 74.18 243.56 74.43 243.56 74.7C243.56 75.02 243.56 77.54 243.56 77.86C243.56 78.88 243.64 80.24 243.8 81.99C243.87 83.64 243.92 84.79 243.92 85.43C243.92 86.16 243.72 86.94 243.32 87.76C242.93 88.58 242.24 89 241.29 89C240.48 89 239.09 87.72 237.1 85.15C235.91 83.59 234.8 82.28 233.82 81.23C232.81 80.18 231.72 79.38 230.52 78.83C228.21 77.64 225.92 76.77 223.65 76.21C221.38 75.66 218.96 75.39 216.41 75.39C211.63 75.39 207.28 76.19 203.38 77.79C199.48 79.4 196.13 81.72 193.33 84.74C190.54 87.76 188.41 91.34 186.94 95.47C185.47 99.59 184.72 104.08 184.72 108.94C184.72 113.8 185.49 118.52 187 123.1C188.51 127.69 190.63 131.75 193.33 135.28C196.04 138.81 199.17 141.58 202.72 143.59C206.27 145.61 210.04 146.62 214.03 146.62C215.93 146.62 218.25 146.21 220.96 145.38C223.67 144.56 226.94 143.46 230.76 142.08C231.32 141.9 231.68 141.28 231.83 140.23C232 139.17 232.08 137.87 232.08 136.31C232.08 130.71 231.95 126.64 231.72 124.07C231.56 121.13 231.15 118.96 230.46 117.53C229.78 116.11 228.37 114.67 226.22 113.2C226.22 113.09 226.22 112.21 226.22 112.1C229.09 112.29 231.46 112.45 233.34 112.58C235.2 112.72 236.9 112.79 238.41 112.79C239.37 112.79 240.89 112.7 242.96 112.52C245.27 112.33 247.42 112.2 249.42 112.1C249.39 112.21 249.09 113.09 249.06 113.2C247.54 113.94 246.55 115.15 246.07 116.85C245.59 118.55 245.31 120.72 245.23 123.38C245.22 123.49 245.13 124.37 245.11 124.48C244.95 127.32 244.86 129.93 244.81 132.32C244.77 134.7 244.76 138.05 244.76 142.36C244.75 142.9 244.61 143.53 244.34 144.21"
              id="bFb6VGRJQ"></path>
        <path d="M281.1 70.9L281.45 70.93L281.81 70.96L282.16 70.98L282.51 71L282.86 71.03L283.21 71.05L283.56 71.07L283.91 71.09L284.25 71.11L284.6 71.13L284.94 71.15L285.28 71.17L285.63 71.19L285.97 71.2L286.31 71.22L286.64 71.24L286.98 71.25L287.32 71.26L287.65 71.28L287.98 71.29L288.31 71.3L288.65 71.31L288.98 71.32L289.3 71.33L289.63 71.34L289.96 71.35L290.28 71.36L290.6 71.37L290.93 71.37L291.25 71.38L291.57 71.38L291.89 71.39L292.2 71.39L292.52 71.4L292.84 71.4L293.15 71.4L293.46 71.4L293.77 71.4L298.08 71.4L302.62 82.95L325.57 140.29L325.68 140.52L325.79 140.74L325.89 140.96L325.99 141.18L326.09 141.4L326.19 141.6L326.29 141.81L326.39 142.01L326.49 142.21L326.59 142.4L326.68 142.59L326.78 142.78L326.87 142.96L326.97 143.14L327.06 143.31L327.15 143.48L327.24 143.65L327.33 143.81L327.42 143.97L327.5 144.13L327.59 144.28L327.67 144.43L327.76 144.57L327.84 144.71L327.92 144.84L328.01 144.98L328.09 145.1L328.17 145.23L328.24 145.35L328.32 145.46L328.4 145.58L328.47 145.68L328.55 145.79L328.62 145.89L328.7 145.99L328.77 146.08L328.84 146.17L328.91 146.25L328.98 146.33L329.05 146.41L329.15 146.52L329.25 146.64L329.36 146.75L329.46 146.86L329.57 146.96L329.68 147.07L329.79 147.18L329.9 147.28L330.02 147.39L330.13 147.49L330.25 147.59L330.37 147.69L330.48 147.79L330.6 147.89L330.73 147.99L330.85 148.08L330.97 148.18L331.1 148.27L331.22 148.37L331.35 148.46L331.48 148.55L331.61 148.64L331.74 148.73L331.88 148.81L332.01 148.9L332.15 148.98L332.28 149.07L332.42 149.15L332.56 149.23L332.7 149.31L332.85 149.39L332.99 149.47L333.14 149.55L333.28 149.62L333.43 149.7L333.58 149.77L333.73 149.84L333.88 149.91L334.04 149.98L334.19 150.05L334.19 151.57L333.99 151.53L333.8 151.5L333.6 151.47L333.41 151.43L333.22 151.4L333.03 151.37L332.84 151.34L332.65 151.31L332.47 151.28L332.28 151.25L332.1 151.22L331.92 151.19L331.74 151.16L331.56 151.14L331.38 151.11L331.2 151.08L331.03 151.06L330.85 151.03L330.68 151.01L330.51 150.98L330.34 150.96L330.17 150.94L330.01 150.91L329.84 150.89L329.68 150.87L329.51 150.85L329.35 150.83L329.19 150.81L329.03 150.79L328.87 150.77L328.72 150.75L328.56 150.73L328.41 150.72L328.26 150.7L328.11 150.68L327.96 150.67L327.81 150.65L327.66 150.64L327.52 150.62L327.38 150.61L327.23 150.59L327.09 150.58L326.95 150.57L326.8 150.55L326.66 150.54L326.52 150.53L326.38 150.52L326.23 150.51L326.09 150.5L325.95 150.48L325.81 150.47L325.67 150.46L325.53 150.46L325.39 150.45L325.25 150.44L325.11 150.43L324.98 150.42L324.84 150.41L324.7 150.41L324.56 150.4L324.43 150.39L324.29 150.39L324.15 150.38L324.02 150.37L323.88 150.37L323.74 150.36L323.61 150.36L323.47 150.35L323.34 150.35L323.2 150.35L323.07 150.34L322.94 150.34L322.8 150.34L322.67 150.34L322.54 150.33L322.4 150.33L322.27 150.33L322.14 150.33L322.01 150.33L321.88 150.33L321.75 150.33L321.61 150.33L321.48 150.33L321.35 150.33L321.21 150.33L321.08 150.34L320.94 150.34L320.8 150.34L320.67 150.34L320.53 150.35L320.39 150.35L320.25 150.35L320.11 150.36L319.97 150.36L319.83 150.37L319.68 150.37L319.54 150.38L319.4 150.39L319.25 150.39L319.11 150.4L318.96 150.41L318.82 150.41L318.67 150.42L318.52 150.43L318.38 150.44L318.23 150.45L318.08 150.46L317.93 150.46L317.78 150.47L317.62 150.48L317.47 150.5L317.32 150.51L317.17 150.52L317.01 150.53L316.86 150.54L316.7 150.55L316.54 150.57L316.39 150.58L316.23 150.59L316.07 150.61L315.91 150.62L315.75 150.64L315.59 150.65L315.43 150.66L315.27 150.68L315.1 150.7L314.93 150.71L314.77 150.73L314.6 150.75L314.43 150.76L314.26 150.78L314.08 150.8L313.91 150.82L313.73 150.83L313.56 150.85L313.38 150.87L313.2 150.89L313.02 150.91L312.84 150.93L312.65 150.95L312.47 150.97L312.28 150.99L312.1 151.02L311.91 151.04L311.72 151.06L311.53 151.08L311.33 151.1L311.14 151.13L310.95 151.15L310.75 151.17L310.55 151.2L310.35 151.22L310.15 151.25L309.95 151.27L309.75 151.3L309.55 151.32L309.34 151.35L309.13 151.38L308.93 151.4L308.72 151.43L308.72 150.05L308.72 150.02L308.72 149.98L308.73 149.95L308.73 149.91L308.74 149.87L308.75 149.83L308.76 149.78L308.77 149.74L308.78 149.7L308.8 149.65L308.82 149.6L308.84 149.56L308.86 149.51L308.88 149.46L308.9 149.4L308.93 149.35L308.96 149.3L308.98 149.24L309.02 149.19L309.05 149.13L309.08 149.07L309.12 149.01L309.15 148.95L309.19 148.89L309.23 148.82L309.27 148.76L309.32 148.69L309.36 148.62L309.41 148.55L309.46 148.48L309.51 148.41L309.56 148.34L309.61 148.27L309.67 148.19L309.73 148.12L309.78 148.04L309.84 147.96L309.91 147.88L309.97 147.8L310.03 147.72L310.12 147.6L310.21 147.49L310.29 147.37L310.38 147.26L310.46 147.15L310.53 147.04L310.61 146.93L310.68 146.82L310.75 146.72L310.82 146.61L310.89 146.51L310.95 146.4L311.01 146.3L311.07 146.2L311.13 146.1L311.18 146L311.24 145.91L311.29 145.81L311.34 145.72L311.38 145.62L311.42 145.53L311.47 145.44L311.51 145.35L311.54 145.26L311.58 145.17L311.61 145.09L311.64 145L311.67 144.92L311.69 144.84L311.72 144.76L311.74 144.68L311.76 144.6L311.77 144.52L311.79 144.44L311.8 144.37L311.81 144.29L311.82 144.22L311.82 144.15L311.83 144.08L311.83 144.01L311.83 143.96L311.83 143.91L311.83 143.86L311.82 143.81L311.82 143.76L311.82 143.71L311.82 143.66L311.82 143.61L311.81 143.56L311.81 143.51L311.81 143.46L311.8 143.41L311.8 143.36L311.8 143.31L311.79 143.26L311.79 143.2L311.78 143.15L311.78 143.1L311.77 143.04L311.77 142.99L311.76 142.94L311.75 142.88L311.75 142.83L311.74 142.78L311.73 142.72L311.73 142.67L311.72 142.61L311.71 142.56L311.7 142.5L311.69 142.45L311.68 142.39L311.67 142.33L311.66 142.28L311.65 142.22L311.64 142.16L311.63 142.1L311.62 142.05L311.61 141.99L311.6 141.93L311.59 141.87L311.58 141.81L311.57 141.76L311.55 141.7L311.54 141.65L311.53 141.59L311.52 141.54L311.51 141.49L311.49 141.44L311.48 141.39L311.47 141.35L311.46 141.3L311.45 141.25L311.43 141.21L311.42 141.17L311.41 141.12L311.4 141.08L311.39 141.04L311.37 141L311.36 140.97L311.35 140.93L311.34 140.89L311.33 140.86L311.31 140.83L311.3 140.79L311.29 140.76L311.28 140.73L311.27 140.7L311.25 140.68L311.24 140.65L311.23 140.62L311.22 140.6L311.21 140.58L311.19 140.55L311.18 140.53L311.17 140.51L311.16 140.49L311.15 140.47L311.13 140.46L311.12 140.44L311.11 140.43L303.7 120.22L303.45 120.19L303.2 120.16L302.96 120.14L302.71 120.11L302.45 120.09L302.2 120.06L301.95 120.04L301.69 120.02L301.44 120L301.18 119.98L300.92 119.96L300.66 119.94L300.4 119.92L300.13 119.9L299.87 119.88L299.6 119.86L299.33 119.85L299.07 119.83L298.8 119.82L298.53 119.8L298.25 119.79L297.98 119.78L297.7 119.77L297.43 119.76L297.15 119.75L296.87 119.74L296.59 119.73L296.31 119.72L296.02 119.71L295.74 119.7L295.45 119.7L295.17 119.69L294.88 119.69L294.59 119.68L294.3 119.68L294 119.67L293.71 119.67L293.41 119.67L293.12 119.67L292.82 119.67L292.5 119.67L292.19 119.67L291.88 119.67L291.57 119.67L291.26 119.68L290.95 119.68L290.64 119.69L290.34 119.69L290.04 119.7L289.74 119.7L289.44 119.71L289.14 119.72L288.85 119.73L288.56 119.74L288.27 119.75L287.98 119.76L287.69 119.77L287.4 119.78L287.12 119.79L286.84 119.8L286.56 119.82L286.28 119.83L286 119.85L285.73 119.86L285.45 119.88L285.18 119.9L284.91 119.92L284.64 119.94L284.38 119.96L284.11 119.98L283.85 120L283.59 120.02L283.33 120.04L283.08 120.06L282.82 120.09L282.57 120.11L282.32 120.14L282.07 120.16L281.82 120.19L281.57 120.22L273.09 142.08L273.04 142.21L272.99 142.34L272.94 142.47L272.89 142.6L272.84 142.72L272.79 142.85L272.75 142.97L272.7 143.09L272.66 143.22L272.62 143.34L272.58 143.46L272.54 143.58L272.5 143.69L272.47 143.81L272.43 143.93L272.4 144.04L272.37 144.15L272.34 144.27L272.31 144.38L272.28 144.49L272.26 144.6L272.23 144.71L272.21 144.81L272.18 144.92L272.16 145.03L272.14 145.13L272.13 145.23L272.11 145.33L272.09 145.44L272.08 145.54L272.07 145.64L272.05 145.73L272.04 145.83L272.04 145.93L272.03 146.02L272.02 146.12L272.02 146.21L272.01 146.3L272.01 146.39L272.01 146.48L272.01 146.59L272.02 146.7L272.02 146.81L272.03 146.92L272.04 147.02L272.05 147.13L272.06 147.24L272.08 147.34L272.1 147.45L272.12 147.55L272.14 147.65L272.16 147.75L272.19 147.86L272.22 147.96L272.25 148.06L272.28 148.16L272.31 148.26L272.35 148.35L272.39 148.45L272.43 148.55L272.47 148.64L272.52 148.74L272.56 148.83L272.61 148.93L272.66 149.02L272.72 149.11L272.77 149.2L272.83 149.29L272.89 149.38L272.95 149.47L273.02 149.56L273.08 149.65L273.15 149.74L273.22 149.83L273.29 149.91L273.37 150L273.44 150.08L273.52 150.16L273.6 150.25L273.68 150.33L273.68 151.43L273.52 151.4L273.36 151.38L273.21 151.35L273.05 151.33L272.9 151.3L272.74 151.28L272.59 151.25L272.44 151.23L272.29 151.21L272.14 151.18L272 151.16L271.85 151.14L271.71 151.12L271.57 151.1L271.42 151.08L271.28 151.06L271.15 151.04L271.01 151.02L270.88 151L270.74 150.99L270.61 150.97L270.48 150.95L270.35 150.94L270.22 150.92L270.09 150.91L269.97 150.89L269.84 150.88L269.72 150.86L269.6 150.85L269.48 150.84L269.36 150.83L269.25 150.81L269.13 150.8L269.02 150.79L268.9 150.78L268.79 150.77L268.68 150.76L268.57 150.76L268.47 150.75L268.36 150.74L268.26 150.73L268.15 150.73L268.05 150.72L267.94 150.72L267.84 150.71L267.73 150.71L267.63 150.7L267.52 150.69L267.42 150.69L267.31 150.68L267.21 150.68L267.1 150.67L267 150.67L266.89 150.67L266.79 150.66L266.68 150.66L266.58 150.65L266.47 150.65L266.36 150.65L266.26 150.64L266.15 150.64L266.05 150.64L265.94 150.63L265.83 150.63L265.73 150.63L265.62 150.62L265.51 150.62L265.41 150.62L265.3 150.62L265.19 150.62L265.09 150.61L264.98 150.61L264.87 150.61L264.76 150.61L264.66 150.61L264.55 150.61L264.44 150.61L264.34 150.61L264.23 150.61L264.12 150.61L264 150.61L263.88 150.61L263.76 150.61L263.64 150.61L263.52 150.61L263.4 150.61L263.28 150.61L263.16 150.61L263.04 150.62L262.92 150.62L262.81 150.62L262.69 150.62L262.57 150.63L262.45 150.63L262.33 150.63L262.21 150.64L262.09 150.64L261.97 150.65L261.85 150.65L261.73 150.66L261.61 150.66L261.49 150.67L261.37 150.67L261.25 150.68L261.13 150.69L261.01 150.69L260.89 150.7L260.77 150.71L260.65 150.71L260.53 150.72L260.41 150.73L260.29 150.74L260.17 150.74L260.06 150.75L259.94 150.76L259.82 150.77L259.7 150.78L259.58 150.79L259.46 150.8L259.34 150.81L259.22 150.82L259.1 150.83L258.97 150.84L258.85 150.85L258.72 150.87L258.59 150.88L258.46 150.89L258.33 150.91L258.19 150.92L258.06 150.93L257.92 150.95L257.78 150.96L257.64 150.98L257.5 151L257.36 151.01L257.21 151.03L257.07 151.05L256.92 151.07L256.77 151.08L256.62 151.1L256.46 151.12L256.31 151.14L256.15 151.16L255.99 151.18L255.83 151.2L255.67 151.22L255.51 151.25L255.34 151.27L255.18 151.29L255.01 151.31L254.84 151.34L254.67 151.36L254.5 151.38L254.32 151.41L254.15 151.43L253.97 151.46L253.79 151.49L253.61 151.51L253.42 151.54L253.24 151.57L254.43 150.05L254.61 149.98L254.79 149.91L254.96 149.84L255.14 149.77L255.31 149.69L255.48 149.62L255.65 149.54L255.82 149.46L255.99 149.38L256.16 149.3L256.33 149.22L256.49 149.14L256.65 149.05L256.82 148.97L256.98 148.88L257.14 148.79L257.3 148.7L257.45 148.61L257.61 148.52L257.76 148.42L257.92 148.33L258.07 148.23L258.22 148.13L258.37 148.04L258.52 147.94L258.67 147.83L258.81 147.73L258.96 147.63L259.1 147.52L259.24 147.41L259.38 147.31L259.52 147.2L259.66 147.09L259.8 146.97L259.93 146.86L260.07 146.75L260.2 146.63L260.33 146.51L260.46 146.39L260.59 146.27L260.72 146.15L260.85 146.03L260.98 145.9L261.1 145.78L261.22 145.65L261.35 145.51L261.47 145.38L261.59 145.24L261.71 145.1L261.83 144.96L261.95 144.82L262.07 144.67L262.18 144.53L262.3 144.38L262.41 144.23L262.52 144.07L262.64 143.92L262.75 143.76L262.86 143.6L262.97 143.44L263.08 143.27L263.18 143.11L263.29 142.94L263.4 142.77L263.5 142.6L263.61 142.42L263.71 142.24L263.81 142.06L263.91 141.88L264.01 141.7L264.11 141.51L264.21 141.33L264.3 141.14L264.4 140.94L264.5 140.75L264.59 140.55L264.68 140.35L264.78 140.15L264.87 139.95L264.96 139.75L287.79 84.19L287.8 84.16L287.81 84.13L287.83 84.1L287.84 84.07L287.85 84.05L287.86 84.02L287.87 83.99L287.88 83.96L287.89 83.93L287.9 83.9L287.9 83.87L287.91 83.83L287.92 83.8L287.93 83.77L287.94 83.74L287.94 83.7L287.95 83.67L287.96 83.64L287.96 83.6L287.97 83.57L287.98 83.54L287.98 83.5L287.99 83.46L287.99 83.43L288 83.39L288 83.36L288.01 83.32L288.01 83.28L288.01 83.25L288.02 83.21L288.02 83.17L288.02 83.13L288.02 83.09L288.03 83.05L288.03 83.01L288.03 82.97L288.03 82.93L288.03 82.89L288.03 82.85L288.03 82.81L288.03 82.67L288.03 82.52L288.02 82.38L288.01 82.24L288 82.09L287.99 81.95L287.97 81.8L287.95 81.66L287.93 81.51L287.9 81.37L287.88 81.22L287.85 81.08L287.82 80.94L287.78 80.79L287.75 80.65L287.71 80.5L287.66 80.36L287.62 80.21L287.57 80.07L287.52 79.92L287.47 79.78L287.42 79.64L287.36 79.49L287.3 79.35L287.24 79.2L287.17 79.06L287.11 78.91L287.04 78.77L286.96 78.63L286.89 78.48L286.81 78.34L286.73 78.19L286.65 78.05L286.56 77.9L286.47 77.76L286.38 77.62L286.29 77.47L286.2 77.33L286.1 77.18L286 77.04L285.9 76.89L285.79 76.75L285.69 76.61L285.58 76.47L285.47 76.33L285.36 76.19L285.25 76.05L285.14 75.91L285.02 75.77L284.91 75.64L284.79 75.5L284.67 75.37L284.55 75.23L284.43 75.1L284.31 74.97L284.18 74.84L284.06 74.71L283.93 74.58L283.8 74.45L283.67 74.32L283.54 74.2L283.4 74.07L283.27 73.95L283.13 73.82L282.99 73.7L282.85 73.58L282.71 73.45L282.57 73.33L282.42 73.21L282.28 73.1L282.13 72.98L281.98 72.86L281.83 72.74L281.68 72.63L281.53 72.51L281.38 72.4L281.22 72.29L281.06 72.18L280.9 72.06L280.74 71.95L280.38 70.85L280.74 70.88L281.1 70.9ZM284.09 114.99L284.55 115.01L285.04 115.03L285.57 115.05L286.13 115.06L286.72 115.08L287.35 115.09L288.01 115.1L288.71 115.11L289.44 115.12L290.2 115.12L291 115.13L291.83 115.13L292.7 115.13L293.6 115.13L294.46 115.13L295.29 115.12L296.08 115.12L296.84 115.11L297.55 115.1L298.23 115.09L298.88 115.08L299.49 115.06L300.06 115.05L300.59 115.03L301.09 115.01L301.55 114.99L301.55 114.72L293.18 92.3L284.09 114.72L284.09 114.99Z"
              id="b2H8SOVpdQ"></path>
        <path d="M546.91 120.75C546.91 136.96 560.06 150.11 576.27 150.11C583.96 150.11 590.96 147.14 596.2 142.3C595.57 141.41 590.59 134.33 589.97 133.45C586.56 137.13 581.68 139.43 576.27 139.43C565.95 139.43 557.59 131.07 557.59 120.75C557.59 110.43 565.95 102.07 576.27 102.07C584.74 102.07 591.89 107.71 594.18 115.43C592.25 115.43 582.62 115.43 565.27 115.43L565.27 126.07L603.67 126.07L604.63 126.07C604.93 126.07 605.1 126.07 605.14 126.07C605.45 124.34 605.62 122.57 605.62 120.75C605.63 104.54 592.48 91.39 576.27 91.39C560.06 91.39 546.91 104.54 546.91 120.75Z"
              id="b4WVbZX5b"></path>
        <path d="M50.3 109.8C50.3 95.33 50.99 81.76 57.03 68.96C56.48 68.96 52.05 68.96 51.5 68.96C46.14 80.44 40.3 94.74 40.38 109.8C40.43 119.87 45.11 137.15 51.42 151.33C51.79 151.33 53.64 151.33 56.99 151.33C52.53 133.26 50.3 119.42 50.3 109.8Z"
              id="b45XjzSx59"></path>
        <path d="M350.21 109.8C350.21 95.33 349.52 81.76 343.47 68.96C344.02 68.96 348.45 68.96 349 68.96C354.37 80.44 360.2 94.74 360.13 109.8C360.08 119.87 355.4 137.15 349.09 151.33C348.72 151.33 346.86 151.33 343.52 151.33C347.98 133.26 350.21 119.42 350.21 109.8Z"
              id="d1bHDXLIVQ"></path>
    </defs>
    <g>
        <g>
            <use xlink:href="#d1AcRHGLLg" opacity="1" fill="#000000" fill-opacity="1"></use>
            <g>
                <use xlink:href="#d1AcRHGLLg" opacity="1" fill-opacity="0" stroke="#000000" stroke-width="1"
                     stroke-opacity="0"></use>
            </g>
        </g>
        <g>
            <use xlink:href="#c63MxIwHA" opacity="1" fill="#000000" fill-opacity="1"></use>
            <g>
                <use xlink:href="#c63MxIwHA" opacity="1" fill-opacity="0" stroke="#000000" stroke-width="1"
                     stroke-opacity="0"></use>
            </g>
        </g>
        <g>
            <use xlink:href="#dTPKdxfwX" opacity="1" fill="#00913a" fill-opacity="1"></use>
            <g>
                <use xlink:href="#dTPKdxfwX" opacity="1" fill-opacity="0" stroke="#000000" stroke-width="1"
                     stroke-opacity="0"></use>
            </g>
        </g>
        <g>
            <use xlink:href="#b73pD54fZ2" opacity="1" fill="#221815" fill-opacity="1"></use>
            <g>
                <use xlink:href="#b73pD54fZ2" opacity="1" fill-opacity="0" stroke="#000000" stroke-width="1"
                     stroke-opacity="0"></use>
            </g>
        </g>
        <g>
            <use xlink:href="#c2VDF7myHB" opacity="1" fill="#221815" fill-opacity="1"></use>
            <g>
                <use xlink:href="#c2VDF7myHB" opacity="1" fill-opacity="0" stroke="#000000" stroke-width="1"
                     stroke-opacity="0"></use>
            </g>
        </g>
        <g>
            <use xlink:href="#bFb6VGRJQ" opacity="1" fill="#221815" fill-opacity="1"></use>
            <g>
                <use xlink:href="#bFb6VGRJQ" opacity="1" fill-opacity="0" stroke="#000000" stroke-width="1"
                     stroke-opacity="0"></use>
            </g>
        </g>
        <g>
            <use xlink:href="#b2H8SOVpdQ" opacity="1" fill="#221815" fill-opacity="1"></use>
            <g>
                <use xlink:href="#b2H8SOVpdQ" opacity="1" fill-opacity="0" stroke="#000000" stroke-width="1"
                     stroke-opacity="0"></use>
            </g>
        </g>
        <g>
            <use xlink:href="#b4WVbZX5b" opacity="1" fill="#000000" fill-opacity="1"></use>
            <g>
                <use xlink:href="#b4WVbZX5b" opacity="1" fill-opacity="0" stroke="#000000" stroke-width="1"
                     stroke-opacity="0"></use>
            </g>
        </g>
        <g>
            <use xlink:href="#b45XjzSx59" opacity="1" fill="#00913a" fill-opacity="1"></use>
            <g>
                <use xlink:href="#b45XjzSx59" opacity="1" fill-opacity="0" stroke="#000000" stroke-width="1"
                     stroke-opacity="0"></use>
            </g>
        </g>
        <g>
            <use xlink:href="#d1bHDXLIVQ" opacity="1" fill="#00913a" fill-opacity="1"></use>
            <g>
                <use xlink:href="#d1bHDXLIVQ" opacity="1" fill-opacity="0" stroke="#000000" stroke-width="1"
                     stroke-opacity="0"></use>
            </g>
        </g>
    </g>
</svg>